<?xml version="1.0" standalone="no"?>
<!DOCTYPE svg PUBLIC "-//W3C//DTD SVG 20010904//EN"
 "http://www.w3.org/TR/2001/REC-SVG-20010904/DTD/svg10.dtd">
<svg version="1.0" xmlns="http://www.w3.org/2000/svg"
 width="700.000000pt" height="700.000000pt" viewBox="0 0 700.000000 700.000000"
 preserveAspectRatio="xMidYMid meet">
<metadata>
Created by potrace 1.14, written by Peter Selinger 2001-2017
</metadata>
<g transform="translate(0.000000,700.000000) scale(0.100000,-0.100000)"
fill="#000000" stroke="none">
<path d="M3457 6904 c-1 -1 -45 -5 -97 -8 -689 -47 -1264 -543 -1450 -1250
-29 -111 -31 -124 -51 -266 -32 -225 -11 -528 56 -791 52 -208 142 -432 237
-588 21 -34 38 -65 38 -67 0 -4 60 -93 77 -114 6 -8 32 -42 57 -75 50 -68 210
-234 270 -280 21 -16 44 -35 50 -41 26 -25 167 -113 242 -152 92 -47 268 -109
338 -118 25 -4 46 -11 46 -16 0 -4 -34 -59 -75 -120 -53 -79 -71 -115 -64
-124 6 -7 40 -12 92 -12 45 0 89 -1 98 -1 15 -1 14 -8 -6 -64 -77 -212 -92
-508 -35 -722 43 -160 112 -293 243 -465 78 -103 159 -271 192 -400 22 -87 27
-132 30 -260 5 -224 -23 -381 -115 -649 -28 -79 -50 -154 -50 -167 0 -13 12
-35 26 -49 23 -23 32 -26 63 -20 20 3 43 16 52 28 19 24 120 327 144 432 31
139 43 242 43 385 1 298 -75 544 -239 772 -155 215 -203 310 -239 464 -32 135
-31 324 1 469 15 68 68 228 79 239 5 5 83 9 174 10 90 1 168 4 172 9 4 4 -29
61 -74 127 l-82 119 48 7 c82 11 280 81 380 134 262 138 502 368 682 655 112
179 232 466 278 665 12 52 38 178 46 230 24 149 25 450 2 600 -40 255 -123
489 -244 689 -26 42 -50 81 -54 86 -4 6 -37 48 -74 95 -222 281 -522 473 -869
555 -125 30 -147 33 -270 41 -55 3 -115 7 -133 8 -18 1 -33 1 -35 0z"/>
</g>
</svg>
