<?xml version="1.0" encoding="utf-8"?>
<!-- Generator: Adobe Illustrator 25.4.1, SVG Export Plug-In . SVG Version: 6.00 Build 0)  -->
<svg version="1.1" id="Layer_1" xmlns="http://www.w3.org/2000/svg" xmlns:xlink="http://www.w3.org/1999/xlink" x="0px" y="0px"
	 viewBox="0 0 1080 1500" style="enable-background:new 0 0 1080 1500;" xml:space="preserve">
<style type="text/css">
	.st0{fill:none;stroke:#000000;stroke-width:2.706;stroke-linecap:round;stroke-miterlimit:10;}
	.st1{fill:#4D13D1;}
	.st2{fill:#B7A1ED;}
	.st3{fill:none;stroke:#000000;stroke-width:1.7519;stroke-linecap:round;stroke-miterlimit:10;}
	.st4{fill:none;stroke:#000000;stroke-width:1.9641;stroke-linecap:round;stroke-miterlimit:10;}
	.st5{fill:none;stroke:#000000;stroke-width:2.95;stroke-linecap:round;stroke-miterlimit:10;}
	.st6{fill:none;stroke:#000000;stroke-width:3.6367;stroke-linecap:round;stroke-miterlimit:10;}
	.st7{fill:none;stroke:#000000;stroke-width:2.218;stroke-linecap:round;stroke-miterlimit:10;}
	.st8{fill:none;stroke:#000000;stroke-width:3.8113;stroke-linecap:round;stroke-miterlimit:10;}
	.st9{fill:#DB0A5B;}
	.st10{fill:#ED85AD;}
	.st11{fill:none;stroke:#000000;stroke-width:3.0867;stroke-linecap:round;stroke-miterlimit:10;}
	.st12{fill:none;stroke:#000000;stroke-width:1.8667;stroke-linecap:round;stroke-miterlimit:10;}
	.st13{fill:none;stroke:#000000;stroke-width:4.0123;stroke-linecap:round;stroke-miterlimit:10;}
	.st14{fill:none;stroke:#000000;stroke-width:4.4471;stroke-linecap:round;stroke-miterlimit:10;}
	.st15{fill:#FFA400;}
	.st16{fill:#FFDB99;}
	.st17{fill:none;stroke:#000000;stroke-width:2.7984;stroke-linecap:round;stroke-miterlimit:10;}
	.st18{fill:none;stroke:#000000;stroke-width:2.3797;stroke-linecap:round;stroke-miterlimit:10;}
	.st19{fill:none;stroke:#000000;stroke-width:2.7895;stroke-linecap:round;stroke-miterlimit:10;}
	.st20{fill:none;stroke:#000000;stroke-width:3.0898;stroke-linecap:round;stroke-miterlimit:10;}
	.st21{fill:none;stroke:#000000;stroke-width:2.8458;stroke-linecap:round;stroke-miterlimit:10;}
</style>
<g>
	<path class="st0" d="M571.7,578.8c0,0-7.1,10.6-5.2,21.2c1.9,10.6,9.9,12,11.5,22.9c1.6,10.9-5.9,27-5.9,27"/>
	<path class="st1" d="M565.5,580.4c-0.2,0.4-0.1,0.6,0.3,0.6h11.4c0.4,0,0.6-0.3,0.3-0.6l-5.7-8.2c-0.2-0.3-0.6-0.3-0.9,0
		L565.5,580.4z"/>
	<path class="st1" d="M599.4,543.3c0,16.3-11.4,33.8-27.7,33.8c-16.3,0-27.7-17.4-27.7-33.8s11.4-29.5,27.7-29.5
		C588,513.7,599.4,527,599.4,543.3"/>
	<path class="st2" d="M571.7,520.3L571.7,520.3c0-1.1-0.9-2-2-1.9c-12.3,1-19.9,10.9-20.7,23.4c-0.1,1.1,0.8,1.9,1.9,1.9
		c1,0,1.8-0.7,1.8-1.7c0.4-4.8,2.8-18.1,17.3-19.9C571,522,571.7,521.2,571.7,520.3"/>
</g>
<g>
	<path class="st3" d="M108.8,319.7c0,0,4.9,8.7,4,12.2c-0.9,3.5-6.9,7.5-5.9,11.5s7,12,5,19"/>
	<path class="st1" d="M104.9,320.9c-0.2,0.2-0.1,0.4,0.2,0.4h7.4c0.3,0,0.4-0.2,0.2-0.4l-3.7-5.3c-0.2-0.2-0.4-0.2-0.6,0
		L104.9,320.9z"/>
	<path class="st1" d="M126.9,296.8c0,10.6-7.4,21.9-17.9,21.9c-10.6,0-17.9-11.3-17.9-21.9c0-10.6,7.4-19.1,17.9-19.1
		C119.5,277.7,126.9,286.3,126.9,296.8"/>
	<path class="st2" d="M108.9,282L108.9,282c0-0.7-0.6-1.3-1.3-1.2c-7.9,0.6-12.9,7.1-13.4,15.2c0,0.7,0.5,1.3,1.2,1.3
		c0.6,0,1.1-0.5,1.2-1.1c0.3-3.1,1.8-11.7,11.2-12.9C108.4,283.1,108.9,282.6,108.9,282"/>
</g>
<g>
	<path class="st4" d="M790.6,140.8c0,0,5.5,9.8,4.5,13.7c-1,3.9-7.8,8.4-6.6,12.9c1.1,4.5,7.8,13.5,5.6,21.3"/>
	<path class="st1" d="M786.2,142.1c-0.2,0.3-0.1,0.5,0.2,0.5h8.3c0.3,0,0.4-0.2,0.2-0.5l-4.1-5.9c-0.2-0.3-0.5-0.3-0.6,0
		L786.2,142.1z"/>
	<path class="st1" d="M810.9,115.2c0,11.8-8.3,24.5-20.1,24.5c-11.8,0-20.1-12.7-20.1-24.5s8.3-21.4,20.1-21.4
		C802.6,93.7,810.9,103.3,810.9,115.2"/>
	<path class="st2" d="M790.7,98.5L790.7,98.5c0-0.8-0.7-1.5-1.4-1.4c-8.9,0.7-14.5,7.9-15,17c0,0.8,0.6,1.4,1.3,1.4
		c0.7,0,1.3-0.5,1.3-1.2c0.3-3.5,2-13.2,12.5-14.5C790.2,99.7,790.7,99.2,790.7,98.5"/>
</g>
<g>
	<path class="st5" d="M973,548.6c0,0,8.3,14.7,6.7,20.6c-1.6,5.9-11.7,12.7-10,19.4c1.7,6.7,11.8,20.2,8.4,32"/>
	<path class="st1" d="M966.4,550.5c-0.3,0.4-0.1,0.7,0.4,0.7h12.4c0.5,0,0.6-0.3,0.4-0.7l-6.2-8.9c-0.3-0.4-0.7-0.4-1,0L966.4,550.5
		z"/>
	<path class="st1" d="M1003.4,510c0,17.8-12.4,36.8-30.2,36.8c-17.8,0-30.2-19-30.2-36.8s12.4-32.2,30.2-32.2
		C991,477.9,1003.4,492.3,1003.4,510"/>
	<path class="st2" d="M973.2,485L973.2,485c0-1.2-1-2.2-2.1-2.1c-13.4,1.1-21.7,11.9-22.5,25.5c-0.1,1.2,0.9,2.1,2,2.1
		c1,0,1.9-0.8,2-1.8c0.4-5.2,3.1-19.8,18.8-21.7C972.4,486.8,973.2,486,973.2,485"/>
</g>
<g>
	<path class="st6" d="M490,955.7c0,0,10.2,18.1,8.3,25.4c-1.9,7.3-14.4,15.6-12.3,23.9c2.1,8.3,14.5,24.9,10.4,39.4"/>
	<path class="st1" d="M481.9,958.1c-0.3,0.5-0.1,0.9,0.5,0.9h15.3c0.6,0,0.8-0.4,0.4-0.9l-7.6-11c-0.3-0.5-0.9-0.5-1.2,0
		L481.9,958.1z"/>
	<path class="st1" d="M527.5,908.2c0,21.9-15.3,45.4-37.3,45.4c-21.9,0-37.3-23.4-37.3-45.4s15.3-39.7,37.3-39.7
		C512.1,868.5,527.5,886.3,527.5,908.2"/>
	<path class="st2" d="M490.2,877.3L490.2,877.3c0-1.5-1.2-2.7-2.6-2.6c-16.5,1.3-26.8,14.7-27.8,31.5c-0.1,1.4,1.1,2.6,2.5,2.6
		c1.3,0,2.4-1,2.5-2.3c0.5-6.4,3.8-24.4,23.2-26.8C489.3,879.6,490.2,878.6,490.2,877.3"/>
</g>
<g>
	<path class="st7" d="M1003.5,1012.4c0,0,6.2,11,5,15.5c-1.2,4.5-8.8,9.5-7.5,14.6c1.3,5.1,8.9,15.2,6.3,24.1"/>
	<path class="st1" d="M998.6,1013.8c-0.2,0.3-0.1,0.5,0.3,0.5h9.3c0.3,0,0.5-0.2,0.3-0.5l-4.6-6.7c-0.2-0.3-0.5-0.3-0.7,0
		L998.6,1013.8z"/>
	<path class="st1" d="M1026.4,983.4c0,13.4-9.4,27.7-22.7,27.7c-13.4,0-22.7-14.3-22.7-27.7c0-13.4,9.4-24.2,22.7-24.2
		C1017,959.2,1026.4,970,1026.4,983.4"/>
	<path class="st2" d="M1003.7,964.5L1003.7,964.5c0-0.9-0.7-1.6-1.6-1.6c-10.1,0.8-16.3,9-16.9,19.2c-0.1,0.9,0.7,1.6,1.5,1.6
		c0.8,0,1.4-0.6,1.5-1.4c0.3-3.9,2.3-14.9,14.2-16.3C1003.1,965.9,1003.7,965.3,1003.7,964.5"/>
</g>
<g>
	<path class="st8" d="M807.3,589.7c0,0-11.3,33.5,0.9,48.7c11.7,14.7,4,44.8,2.3,49.9"/>
	<path class="st9" d="M797.9,593.7c-0.3,0.5-0.1,0.9,0.5,0.9h16.1c0.6,0,0.8-0.4,0.5-0.9l-8-11.5c-0.3-0.5-0.9-0.5-1.2,0
		L797.9,593.7z"/>
	<path class="st9" d="M845.7,541.4c0,23-16.1,47.5-39,47.5c-23,0-39-24.6-39-47.5c0-23,16.1-41.6,39-41.6
		C829.6,499.8,845.7,518.4,845.7,541.4"/>
	<path class="st10" d="M806.6,509L806.6,509c0-1.6-1.3-2.8-2.8-2.7c-17.3,1.4-28.1,15.4-29.1,33c-0.1,1.5,1.1,2.7,2.6,2.7
		c1.4,0,2.5-1,2.6-2.4c0.6-6.7,3.9-25.6,24.3-28.1C805.6,511.4,806.6,510.3,806.6,509"/>
</g>
<g>
	<path class="st11" d="M167.7,1084.5c0,0-9.2,27.1,0.7,39.5c9.5,11.9,3.2,36.3,1.9,40.4"/>
	<path class="st9" d="M160.1,1087.7c-0.3,0.4-0.1,0.7,0.4,0.7h13c0.5,0,0.7-0.3,0.4-0.7l-6.5-9.3c-0.3-0.4-0.7-0.4-1,0L160.1,1087.7
		z"/>
	<path class="st9" d="M198.9,1045.3c0,18.6-13,38.5-31.6,38.5s-31.6-19.9-31.6-38.5c0-18.6,13-33.7,31.6-33.7
		S198.9,1026.7,198.9,1045.3"/>
	<path class="st10" d="M167.2,1019.1L167.2,1019.1c0-1.3-1-2.3-2.2-2.2c-14,1.1-22.8,12.5-23.6,26.7c-0.1,1.2,0.9,2.2,2.1,2.2
		c1.1,0,2-0.8,2.1-1.9c0.5-5.5,3.2-20.7,19.7-22.7C166.4,1021.1,167.2,1020.2,167.2,1019.1"/>
</g>
<g>
	<path class="st11" d="M694.7,902.5c0,0-9.2,27.1,0.7,39.5c9.5,11.9,3.2,36.3,1.9,40.4"/>
	<path class="st9" d="M687.1,905.7c-0.3,0.4-0.1,0.7,0.4,0.7h13c0.5,0,0.7-0.3,0.4-0.7l-6.5-9.3c-0.3-0.4-0.7-0.4-1,0L687.1,905.7z"
		/>
	<path class="st9" d="M725.9,863.3c0,18.6-13,38.5-31.6,38.5c-18.6,0-31.6-19.9-31.6-38.5c0-18.6,13-33.7,31.6-33.7
		C712.8,829.6,725.9,844.7,725.9,863.3"/>
	<path class="st10" d="M694.2,837.1L694.2,837.1c0-1.3-1-2.3-2.2-2.2c-14,1.1-22.8,12.5-23.6,26.7c-0.1,1.2,0.9,2.2,2.1,2.2
		c1.1,0,2-0.8,2.1-1.9c0.5-5.5,3.2-20.7,19.7-22.7C693.4,839.1,694.2,838.2,694.2,837.1"/>
</g>
<g>
	<path class="st12" d="M356.6,108.4c0,0,8.1,14.8,6.2,22.6c-1.8,7.9-13.9,13.9-12.1,24.2c1.8,10.3,7.9,18.7,7.9,18.7"/>
	<path class="st9" d="M352.4,109.7c-0.2,0.2-0.1,0.4,0.2,0.4h7.9c0.3,0,0.4-0.2,0.2-0.4l-3.9-5.6c-0.2-0.2-0.4-0.2-0.6,0
		L352.4,109.7z"/>
	<path class="st9" d="M375.9,84.1c0,11.3-7.9,23.3-19.1,23.3s-19.1-12-19.1-23.3c0-11.3,7.9-20.4,19.1-20.4S375.9,72.8,375.9,84.1"
		/>
	<path class="st10" d="M356.7,68.2L356.7,68.2c0-0.8-0.6-1.4-1.4-1.3c-8.5,0.7-13.8,7.5-14.3,16.2c0,0.7,0.5,1.3,1.3,1.3
		c0.7,0,1.2-0.5,1.3-1.2c0.3-3.3,1.9-12.5,11.9-13.7C356.2,69.4,356.7,68.9,356.7,68.2"/>
</g>
<g>
	<path class="st12" d="M931.6,93.4c0,0,8.1,14.8,6.2,22.6s-13.9,13.9-12.1,24.2s7.9,18.7,7.9,18.7"/>
	<path class="st9" d="M927.4,94.7c-0.2,0.2-0.1,0.4,0.2,0.4h7.9c0.3,0,0.4-0.2,0.2-0.4l-3.9-5.6c-0.2-0.2-0.4-0.2-0.6,0L927.4,94.7z
		"/>
	<path class="st9" d="M950.9,69.1c0,11.3-7.9,23.3-19.1,23.3s-19.1-12-19.1-23.3c0-11.3,7.9-20.4,19.1-20.4S950.9,57.8,950.9,69.1"
		/>
	<path class="st10" d="M931.7,53.2L931.7,53.2c0-0.8-0.6-1.4-1.4-1.3c-8.5,0.7-13.8,7.5-14.3,16.2c0,0.7,0.5,1.3,1.3,1.3
		c0.7,0,1.2-0.5,1.3-1.2c0.3-3.3,1.9-12.5,11.9-13.7C931.2,54.4,931.7,53.9,931.7,53.2"/>
</g>
<g>
	<path class="st13" d="M94.5,535.8c0,0,17.3,31.8,13.4,48.7c-3.9,16.9-29.9,29.9-26,52s16.9,40.3,16.9,40.3"/>
	<path class="st9" d="M85.5,538.6c-0.4,0.5-0.1,0.9,0.5,0.9h16.9c0.6,0,0.9-0.4,0.5-0.9L95,526.5c-0.4-0.5-0.9-0.5-1.3,0L85.5,538.6
		z"/>
	<path class="st9" d="M135.8,483.5c0,24.2-16.9,50.1-41.1,50.1s-41.1-25.9-41.1-50.1c0-24.2,16.9-43.8,41.1-43.8
		S135.8,459.3,135.8,483.5"/>
	<path class="st10" d="M94.7,449.4v-0.1c0-1.6-1.3-2.9-2.9-2.7c-18.2,1.4-29.6,16.2-30.6,34.7c-0.1,1.6,1.2,2.9,2.7,2.9
		c1.4,0,2.6-1.1,2.7-2.5c0.6-7.1,4.2-26.9,25.6-29.6C93.7,452,94.7,450.8,94.7,449.4"/>
</g>
<g>
	<path class="st14" d="M311.4,695.6c0,0,15.9,26.3,14.1,45s-22.4,31.8-18.7,56.1c3.7,24.3,14.7,38.1,14.7,38.1"/>
	<path class="st15" d="M301.5,697.3c-0.4,0.6-0.1,1.1,0.6,1.1h18.7c0.7,0,0.9-0.5,0.5-1l-9.3-13.4c-0.4-0.6-1-0.6-1.4,0L301.5,697.3
		z"/>
	<path class="st15" d="M357.2,636.2c0,26.8-18.8,55.5-45.6,55.5c-26.8,0-45.6-28.7-45.6-55.5c0-26.8,18.8-48.5,45.6-48.5
		C338.5,587.7,357.2,609.4,357.2,636.2"/>
	<path class="st16" d="M311.7,598.4v-0.1c0-1.8-1.5-3.2-3.2-3c-20.2,1.6-32.8,18-34,38.5c-0.1,1.7,1.3,3.2,3,3.2
		c1.6,0,2.9-1.2,3-2.8c0.7-7.9,4.6-29.8,28.4-32.8C310.5,601.3,311.7,600,311.7,598.4"/>
</g>
<g>
	<path class="st17" d="M865,916.3c0,0-11.8,47,4.7,88.2"/>
	<path class="st15" d="M859.3,918.5c-0.2,0.4-0.1,0.7,0.4,0.7h11.8c0.4,0,0.6-0.3,0.3-0.7L866,910c-0.3-0.4-0.7-0.4-0.9,0
		L859.3,918.5z"/>
	<path class="st15" d="M894.4,880.1c0,16.9-11.8,34.9-28.7,34.9c-16.9,0-28.7-18-28.7-34.9s11.8-30.5,28.7-30.5
		C882.6,849.5,894.4,863.2,894.4,880.1"/>
	<path class="st16" d="M865.8,856.3L865.8,856.3c0-1.2-0.9-2.1-2-2c-12.7,1-20.6,11.3-21.4,24.2c-0.1,1.1,0.8,2,1.9,2
		c1,0,1.8-0.8,1.9-1.8c0.4-4.9,2.9-18.8,17.9-20.6C865,858,865.8,857.2,865.8,856.3"/>
</g>
<g>
	<path class="st18" d="M88.3,117.4c0,0,8.5,14.1,7.5,24.1s-12,17-10,30s7.9,20.4,7.9,20.4"/>
	<path class="st15" d="M83,118.3c-0.2,0.3-0.1,0.6,0.3,0.6h10c0.4,0,0.5-0.3,0.3-0.6l-5-7.2c-0.2-0.3-0.6-0.3-0.8,0L83,118.3z"/>
	<path class="st15" d="M112.9,85.7c0,14.3-10,29.7-24.4,29.7c-14.3,0-24.4-15.3-24.4-29.7c0-14.3,10-26,24.4-26
		C102.8,59.7,112.9,71.3,112.9,85.7"/>
	<path class="st16" d="M88.5,65.4L88.5,65.4c0-1-0.8-1.8-1.7-1.7C76,64.6,69.2,73.4,68.6,84.4c-0.1,0.9,0.7,1.7,1.6,1.7
		c0.8,0,1.6-0.6,1.6-1.5c0.3-4.2,2.5-16,15.2-17.5C87.8,67,88.5,66.3,88.5,65.4"/>
</g>
<g>
	<path class="st19" d="M303.7,1250.4c0,0,7.8,13.9,6.3,19.5c-1.5,5.6-11,12-9.4,18.3s11.1,19.1,8,30.3"/>
	<path class="st1" d="M297.5,1252.2c-0.2,0.4-0.1,0.7,0.3,0.7h11.7c0.4,0,0.6-0.3,0.3-0.7l-5.8-8.4c-0.2-0.4-0.7-0.4-0.9,0
		L297.5,1252.2z"/>
	<path class="st1" d="M332.4,1214c0,16.8-11.8,34.8-28.6,34.8c-16.8,0-28.6-18-28.6-34.8s11.8-30.4,28.6-30.4
		C320.7,1183.5,332.4,1197.1,332.4,1214"/>
	<path class="st2" d="M303.9,1190.2L303.9,1190.2c0-1.2-0.9-2.1-2-2c-12.6,1-20.6,11.3-21.3,24.2c-0.1,1.1,0.8,2,1.9,2
		c1,0,1.8-0.8,1.9-1.7c0.4-4.9,2.9-18.7,17.8-20.5C303.1,1192,303.9,1191.2,303.9,1190.2"/>
</g>
<g>
	<path class="st20" d="M773.1,1202.3c0,0-8.1,12.1-5.9,24.2c2.2,12.1,11.3,13.7,13.1,26.2c1.8,12.5-6.7,30.8-6.7,30.8"/>
	<path class="st15" d="M766,1204.1c-0.3,0.4-0.1,0.7,0.4,0.7h13c0.5,0,0.7-0.3,0.4-0.7l-6.5-9.3c-0.3-0.4-0.7-0.4-1,0L766,1204.1z"
		/>
	<path class="st15" d="M804.7,1161.7c0,18.6-13,38.5-31.7,38.5c-18.6,0-31.7-19.9-31.7-38.5s13-33.7,31.7-33.7
		C791.7,1128,804.7,1143.1,804.7,1161.7"/>
	<path class="st16" d="M773.1,1135.4L773.1,1135.4c0-1.3-1-2.3-2.2-2.2c-14,1.1-22.8,12.5-23.6,26.8c-0.1,1.2,0.9,2.2,2.1,2.2
		c1.1,0,2-0.8,2.1-1.9c0.5-5.5,3.2-20.7,19.7-22.8C772.3,1137.4,773.1,1136.5,773.1,1135.4"/>
</g>
<g>
	<path class="st21" d="M990.2,345.7c0,0-7.5,11.1-5.4,22.3c2,11.1,10.4,12.6,12.1,24.1c1.6,11.5-6.2,28.4-6.2,28.4"/>
	<path class="st15" d="M983.7,347.4c-0.3,0.4-0.1,0.7,0.4,0.7h12c0.4,0,0.6-0.3,0.4-0.7l-5.9-8.6c-0.3-0.4-0.7-0.4-0.9,0
		L983.7,347.4z"/>
	<path class="st15" d="M1019.4,308.3c0,17.2-12,35.5-29.2,35.5c-17.2,0-29.2-18.3-29.2-35.5s12-31.1,29.2-31.1
		C1007.4,277.3,1019.4,291.2,1019.4,308.3"/>
	<path class="st16" d="M990.2,284.1L990.2,284.1c0-1.2-0.9-2.1-2.1-2c-12.9,1-21,11.5-21.7,24.6c-0.1,1.1,0.8,2,1.9,2
		c1,0,1.9-0.8,1.9-1.8c0.4-5,2.9-19.1,18.2-21C989.5,285.9,990.2,285.1,990.2,284.1"/>
</g>
</svg>
