<?xml version="1.0" encoding="utf-8"?>
<!-- Generator: Adobe Illustrator 25.4.1, SVG Export Plug-In . SVG Version: 6.00 Build 0)  -->
<svg version="1.1" id="Layer_1" xmlns="http://www.w3.org/2000/svg" xmlns:xlink="http://www.w3.org/1999/xlink" x="0px" y="0px"
	 viewBox="0 0 1000 306" style="enable-background:new 0 0 1000 306;" xml:space="preserve">
<style type="text/css">
	.st0{fill:none;stroke:#000000;stroke-width:7.2155;stroke-linecap:round;stroke-miterlimit:10;}
	.st1{fill:#DB0A5B;}
	.st2{fill:#ED85AD;}
</style>
<g>
	<g>
		<path d="M5.7,299.4V125.6h69.6c12.8,0,23.4,1.9,32,5.7c8.5,3.8,15,9,19.3,15.7c4.3,6.7,6.4,14.4,6.4,23.1c0,6.8-1.4,12.7-4.1,17.9
			c-2.7,5.1-6.4,9.3-11.2,12.6c-4.7,3.3-10.1,5.6-16.2,6.9v1.7c6.6,0.3,12.8,2.2,18.6,5.6c5.8,3.4,10.5,8.3,14.1,14.5
			c3.6,6.2,5.4,13.6,5.4,22.1c0,9.2-2.3,17.4-6.8,24.6c-4.6,7.2-11.3,12.9-20.1,17.1c-8.9,4.2-19.8,6.3-32.8,6.3H5.7z M42.4,198.3
			h27.2c5,0,9.5-0.9,13.4-2.7c3.9-1.8,7-4.3,9.3-7.6c2.3-3.3,3.4-7.2,3.4-11.8c0-6.3-2.2-11.3-6.7-15.2c-4.4-3.8-10.7-5.8-18.9-5.8
			H42.4V198.3z M42.4,269.3h29.9c10.2,0,17.7-2,22.4-5.9c4.7-3.9,7-9.2,7-15.7c0-4.8-1.2-9-3.5-12.7c-2.3-3.7-5.6-6.6-9.9-8.7
			c-4.3-2.1-9.3-3.1-15.2-3.1H42.4V269.3z"/>
		<path d="M200.1,301.8c-8.3,0-15.7-1.5-22.2-4.4c-6.5-2.9-11.6-7.2-15.4-13c-3.8-5.7-5.6-12.9-5.6-21.5c0-7.2,1.3-13.3,4-18.2
			c2.7-4.9,6.3-8.9,10.9-11.9c4.6-3,9.8-5.3,15.7-6.8c5.9-1.5,12-2.6,18.5-3.2c7.6-0.8,13.7-1.5,18.3-2.2c4.6-0.7,8-1.8,10.1-3.2
			c2.1-1.4,3.1-3.5,3.1-6.3v-0.5c0-5.4-1.7-9.5-5-12.5c-3.4-2.9-8.1-4.4-14.3-4.4c-6.5,0-11.7,1.4-15.5,4.3
			c-3.8,2.9-6.4,6.4-7.6,10.7l-33.4-2.7c1.7-7.9,5-14.8,10-20.6c5-5.8,11.4-10.3,19.3-13.4c7.9-3.1,17-4.7,27.4-4.7
			c7.2,0,14.2,0.8,20.8,2.5c6.6,1.7,12.6,4.3,17.7,7.9c5.2,3.6,9.3,8.1,12.3,13.7c3,5.6,4.5,12.2,4.5,20v87.9h-34.3v-18.1h-1
			c-2.1,4.1-4.9,7.6-8.4,10.7c-3.5,3.1-7.7,5.5-12.6,7.2C212.2,301,206.5,301.8,200.1,301.8z M210.4,276.9c5.3,0,10-1.1,14.1-3.2
			c4.1-2.1,7.3-5,9.6-8.6c2.3-3.6,3.5-7.7,3.5-12.3V239c-1.1,0.7-2.7,1.4-4.6,2s-4.1,1.1-6.6,1.6c-2.4,0.5-4.9,0.9-7.3,1.3
			c-2.4,0.4-4.6,0.7-6.6,1c-4.2,0.6-7.9,1.6-11.1,3c-3.2,1.4-5.6,3.2-7.4,5.5c-1.8,2.3-2.6,5.1-2.6,8.5c0,4.9,1.8,8.7,5.4,11.2
			C200.3,275.6,204.9,276.9,210.4,276.9z"/>
		<path d="M337.7,125.6v173.8h-36.1V125.6H337.7z"/>
		<path d="M402.7,125.6v173.8h-36.1V125.6H402.7z"/>
		<path d="M490.4,301.9c-13.2,0-24.6-2.8-34.1-8.4c-9.6-5.6-17-13.5-22.2-23.6c-5.2-10.1-7.8-21.8-7.8-35.2
			c0-13.5,2.6-25.2,7.8-35.3c5.2-10.1,12.6-18,22.2-23.6c9.6-5.6,21-8.4,34.1-8.4c13.2,0,24.6,2.8,34.1,8.4
			c9.6,5.6,17,13.5,22.2,23.6c5.2,10.1,7.8,21.9,7.8,35.3c0,13.3-2.6,25.1-7.8,35.2c-5.2,10.1-12.6,18-22.2,23.6
			C514.9,299.1,503.6,301.9,490.4,301.9z M490.5,273.9c6,0,11-1.7,15-5.1c4-3.4,7.1-8.1,9.1-14c2.1-5.9,3.1-12.7,3.1-20.3
			c0-7.6-1-14.3-3.1-20.3c-2.1-5.9-5.1-10.6-9.1-14.1c-4-3.4-9-5.2-15-5.2c-6.1,0-11.1,1.7-15.2,5.2c-4.1,3.4-7.2,8.1-9.2,14.1
			c-2.1,5.9-3.1,12.7-3.1,20.3c0,7.6,1,14.3,3.1,20.3c2.1,5.9,5.1,10.6,9.2,14C479.4,272.2,484.5,273.9,490.5,273.9z"/>
		<path d="M637,301.9c-13.2,0-24.6-2.8-34.1-8.4c-9.6-5.6-17-13.5-22.2-23.6c-5.2-10.1-7.8-21.8-7.8-35.2c0-13.5,2.6-25.2,7.8-35.3
			c5.2-10.1,12.6-18,22.2-23.6c9.6-5.6,21-8.4,34.1-8.4c13.2,0,24.6,2.8,34.1,8.4c9.6,5.6,17,13.5,22.2,23.6
			c5.2,10.1,7.8,21.9,7.8,35.3c0,13.3-2.6,25.1-7.8,35.2c-5.2,10.1-12.6,18-22.2,23.6C661.5,299.1,650.2,301.9,637,301.9z
			 M637.1,273.9c6,0,11-1.7,15-5.1c4-3.4,7.1-8.1,9.1-14c2.1-5.9,3.1-12.7,3.1-20.3c0-7.6-1-14.3-3.1-20.3
			c-2.1-5.9-5.1-10.6-9.1-14.1c-4-3.4-9-5.2-15-5.2c-6.1,0-11.1,1.7-15.2,5.2c-4.1,3.4-7.2,8.1-9.2,14.1c-2.1,5.9-3.1,12.7-3.1,20.3
			c0,7.6,1,14.3,3.1,20.3c2.1,5.9,5.1,10.6,9.2,14C626,272.2,631.1,273.9,637.1,273.9z"/>
		<path d="M760.8,224v75.3h-36.1V169.1h34.4v23h1.5c2.9-7.6,7.7-13.6,14.5-18s15-6.7,24.7-6.7c9,0,16.9,2,23.7,5.9
			c6.7,4,12,9.6,15.7,16.9c3.7,7.3,5.6,16,5.6,26.2v83h-36.1v-76.5c0.1-8-2-14.2-6.1-18.7c-4.1-4.5-9.8-6.7-17.1-6.7
			c-4.9,0-9.1,1-12.9,3.1c-3.7,2.1-6.6,5.1-8.7,9.1C762,213.6,760.9,218.4,760.8,224z"/>
	</g>
	<g>
		<path class="st0" d="M920.9,171.2c0,0-21.4,32.5,1.6,61.4c22.1,27.8,7.6,59.6,4.4,69.3"/>
		<g>
			<path class="st1" d="M903.2,178.7c-0.6,0.9-0.2,1.7,0.9,1.7h30.4c1.1,0,1.5-0.8,0.9-1.7l-15.1-21.8c-0.6-0.9-1.7-0.9-2.3,0
				L903.2,178.7z"/>
		</g>
		<path class="st1" d="M993.7,79.7c0,43.5-30.4,90-73.9,90c-43.5,0-73.9-46.5-73.9-90s30.4-78.8,73.9-78.8
			C963.3,0.9,993.7,36.2,993.7,79.7z"/>
		<path class="st2" d="M919.8,18.4v-0.2c0-2.8-2.4-5.2-5.2-4.9c-32.7,2.6-53.2,29.2-55.1,62.5c-0.2,2.8,2.1,5.2,4.9,5.2l0,0
			c2.6,0,4.7-2,4.9-4.5c1.1-12.7,7.5-48.4,46.1-53.1C917.9,22.9,919.8,20.9,919.8,18.4z"/>
	</g>
</g>
</svg>
