<?xml version="1.0" encoding="utf-8"?>
<!-- Generator: Adobe Illustrator 28.1.0, SVG Export Plug-In . SVG Version: 6.00 Build 0)  -->
<svg version="1.1" id="Layer_1" xmlns="http://www.w3.org/2000/svg" xmlns:xlink="http://www.w3.org/1999/xlink" x="0px" y="0px"
	 viewBox="0 0 1300 303" style="enable-background:new 0 0 1300 303;" xml:space="preserve">
<style type="text/css">
	.st0{fill:none;stroke:#000000;stroke-width:6.8104;stroke-linecap:round;stroke-miterlimit:10;}
	.st1{fill:#DB0A5B;}
	.st2{fill:#ED85AD;}
	.st3{fill:#4D13D1;}
</style>
<g>
	<g>
		<path d="M12.4,283.7v-164h65.7c12.1,0,22.1,1.8,30.2,5.4c8,3.6,14.2,8.5,18.2,14.8c4.1,6.3,6,13.6,6,21.8c0,6.4-1.3,12-3.9,16.9
			c-2.5,4.8-6,8.8-10.6,11.9c-4.4,3.1-9.5,5.3-15.3,6.5v1.6c6.2,0.3,12.1,2.1,17.6,5.3s9.9,7.8,13.3,13.7c3.4,5.9,5.1,12.8,5.1,20.9
			c0,8.7-2.2,16.4-6.4,23.2c-4.3,6.8-10.7,12.2-19,16.1c-8.4,4-18.7,5.9-31,5.9H12.4z M47,188.3h25.7c4.7,0,9-0.8,12.6-2.5
			s6.6-4.1,8.8-7.2s3.2-6.8,3.2-11.1c0-5.9-2.1-10.7-6.3-14.3c-4.2-3.6-10.1-5.5-17.8-5.5H47V188.3z M47,255.3h28.2
			c9.6,0,16.7-1.9,21.1-5.6c4.4-3.7,6.6-8.7,6.6-14.8c0-4.5-1.1-8.5-3.3-12c-2.2-3.5-5.3-6.2-9.3-8.2s-8.8-2.9-14.3-2.9H47V255.3z"
			/>
		<path d="M195.9,286c-7.8,0-14.8-1.4-21-4.2c-6.1-2.7-10.9-6.8-14.5-12.3c-3.6-5.4-5.3-12.2-5.3-20.3c0-6.8,1.2-12.6,3.8-17.2
			c2.5-4.6,5.9-8.4,10.3-11.2c4.3-2.8,9.2-5,14.8-6.4s11.3-2.5,17.5-3c7.2-0.8,12.9-1.4,17.3-2.1c4.3-0.7,7.6-1.7,9.5-3
			c2-1.3,2.9-3.3,2.9-5.9v-0.5c0-5.1-1.6-9-4.7-11.8c-3.2-2.7-7.6-4.2-13.5-4.2c-6.1,0-11,1.3-14.6,4.1c-3.6,2.7-6,6-7.2,10.1
			l-31.5-2.5c1.6-7.5,4.7-14,9.4-19.4s10.8-9.7,18.2-12.6c7.5-2.9,16-4.4,25.9-4.4c6.8,0,13.4,0.8,19.6,2.4s11.9,4.1,16.7,7.5
			c4.9,3.4,8.8,7.6,11.6,12.9c2.8,5.3,4.2,11.5,4.2,18.9v83h-32.4v-17.1H232c-2,3.9-4.6,7.2-7.9,10.1c-3.3,2.9-7.3,5.2-11.9,6.8
			C207.3,285.3,201.9,286,195.9,286z M205.6,262.5c5,0,9.4-1,13.3-3c3.9-2,6.9-4.7,9.1-8.1c2.2-3.4,3.3-7.3,3.3-11.6v-13
			c-1,0.7-2.5,1.3-4.3,1.9c-1.8,0.6-3.9,1-6.2,1.5s-4.6,0.8-6.9,1.2c-2.3,0.4-4.3,0.7-6.2,0.9c-4,0.6-7.5,1.5-10.5,2.8s-5.3,3-7,5.2
			s-2.5,4.8-2.5,8c0,4.6,1.7,8.2,5.1,10.6C196,261.3,200.4,262.5,205.6,262.5z"/>
		<path d="M325.7,119.7v164h-34.1v-164L325.7,119.7L325.7,119.7z"/>
		<path d="M387.1,119.7v164H353v-164L387.1,119.7L387.1,119.7z"/>
		<path d="M469.9,286.1c-12.5,0-23.2-2.6-32.2-7.9c-9.1-5.3-16-12.7-21-22.3c-4.9-9.5-7.4-20.6-7.4-33.2c0-12.7,2.5-23.8,7.4-33.3
			s11.9-17,21-22.3s19.8-7.9,32.2-7.9c12.5,0,23.2,2.6,32.2,7.9c9.1,5.3,16,12.7,21,22.3c4.9,9.5,7.4,20.7,7.4,33.3
			s-2.5,23.7-7.4,33.2c-4.9,9.5-11.9,17-21,22.3C493,283.5,482.3,286.1,469.9,286.1z M470,259.7c5.7,0,10.4-1.6,14.2-4.8
			c3.8-3.2,6.7-7.6,8.6-13.2c2-5.6,2.9-12,2.9-19.2s-0.9-13.5-2.9-19.2c-2-5.6-4.8-10-8.6-13.3c-3.8-3.2-8.5-4.9-14.2-4.9
			c-5.8,0-10.5,1.6-14.3,4.9c-3.9,3.2-6.8,7.6-8.7,13.3c-2,5.6-2.9,12-2.9,19.2s0.9,13.5,2.9,19.2c2,5.6,4.8,10,8.7,13.2
			C459.5,258.1,464.3,259.7,470,259.7z"/>
		<path d="M608.2,286.1c-12.5,0-23.2-2.6-32.2-7.9c-9.1-5.3-16-12.7-21-22.3c-4.9-9.5-7.4-20.6-7.4-33.2c0-12.7,2.5-23.8,7.4-33.3
			s11.9-17,21-22.3s19.8-7.9,32.2-7.9c12.5,0,23.2,2.6,32.2,7.9c9.1,5.3,16,12.7,21,22.3c4.9,9.5,7.4,20.7,7.4,33.3
			s-2.5,23.7-7.4,33.2c-4.9,9.5-11.9,17-21,22.3C631.4,283.5,620.7,286.1,608.2,286.1z M608.3,259.7c5.7,0,10.4-1.6,14.2-4.8
			s6.7-7.6,8.6-13.2c2-5.6,2.9-12,2.9-19.2s-0.9-13.5-2.9-19.2c-2-5.6-4.8-10-8.6-13.3c-3.8-3.2-8.5-4.9-14.2-4.9
			c-5.8,0-10.5,1.6-14.3,4.9c-3.9,3.2-6.8,7.6-8.7,13.3c-2,5.6-2.9,12-2.9,19.2s0.9,13.5,2.9,19.2c2,5.6,4.8,10,8.7,13.2
			C597.8,258.1,602.7,259.7,608.3,259.7z"/>
		<path d="M725.1,212.6v71.1H691V160.8h32.5v21.7h1.4c2.7-7.2,7.3-12.8,13.7-17s14.2-6.3,23.3-6.3c8.5,0,16,1.9,22.4,5.6
			c6.3,3.8,11.3,9.1,14.8,16s5.3,15.1,5.3,24.7v78.3h-34.1v-72.2c0.1-7.6-1.9-13.4-5.8-17.7s-9.2-6.3-16.1-6.3
			c-4.6,0-8.6,0.9-12.2,2.9c-3.5,2-6.2,4.8-8.2,8.6C726.2,202.8,725.2,207.3,725.1,212.6z"/>
	</g>
	<g>
		<path class="st0" d="M876.2,162.7c0,0-20.2,30.7,1.5,58c20.9,26.2,7.2,56.3,4.2,65.4"/>
		<g>
			<path class="st1" d="M859.5,169.8c-0.6,0.8-0.2,1.6,0.8,1.6H889c1,0,1.4-0.8,0.8-1.6l-14.3-20.6c-0.6-0.8-1.6-0.8-2.2,0
				L859.5,169.8z"/>
		</g>
		<path class="st1" d="M944.9,76.4c0,41.1-28.7,84.9-69.8,84.9s-69.8-43.9-69.8-84.9S834.1,2,875.2,2C916.2,2,944.9,35.3,944.9,76.4
			z"/>
		<path class="st2" d="M875.2,18.5v-0.2c0-2.6-2.3-4.9-4.9-4.6c-30.9,2.5-50.2,27.6-52,59c-0.2,2.6,2,4.9,4.6,4.9l0,0
			c2.5,0,4.4-1.9,4.6-4.2c1-12,7.1-45.7,43.5-50.1C873.4,22.8,875.2,20.9,875.2,18.5z"/>
	</g>
</g>
<g>
	<g>
		<path class="st3" d="M984.9,233.9c-0.3-2.7-1.4-4.9-3.5-6.4c-2.1-1.5-4.9-2.3-8.4-2.3c-2.4,0-4.4,0.3-6.1,1s-2.9,1.6-3.8,2.8
			c-0.9,1.2-1.3,2.5-1.3,4c0,1.2,0.2,2.3,0.8,3.3c0.6,0.9,1.4,1.7,2.4,2.4s2.2,1.2,3.5,1.7s2.8,0.9,4.3,1.2l6.2,1.5
			c3,0.7,5.8,1.6,8.3,2.7c2.5,1.1,4.7,2.5,6.6,4.2c1.9,1.7,3.3,3.6,4.3,5.8c1,2.2,1.6,4.8,1.6,7.7c0,4.3-1.1,7.9-3.2,11
			c-2.1,3.1-5.2,5.5-9.2,7.2c-4,1.7-8.8,2.6-14.5,2.6c-5.6,0-10.5-0.9-14.6-2.6c-4.1-1.7-7.4-4.3-9.7-7.6c-2.3-3.4-3.5-7.6-3.6-12.6
			h14.2c0.2,2.3,0.8,4.3,2,5.8c1.2,1.5,2.8,2.7,4.8,3.5c2,0.8,4.3,1.2,6.8,1.2c2.5,0,4.7-0.4,6.5-1.1c1.8-0.7,3.3-1.7,4.3-3
			c1-1.3,1.5-2.8,1.5-4.4c0-1.6-0.5-2.9-1.4-3.9c-0.9-1.1-2.2-2-4-2.7s-3.9-1.4-6.4-2l-7.6-1.9c-5.9-1.4-10.5-3.7-13.9-6.7
			c-3.4-3-5.1-7.1-5.1-12.2c0-4.2,1.1-7.9,3.4-11c2.3-3.1,5.4-5.6,9.4-7.4c4-1.8,8.5-2.6,13.6-2.6c5.2,0,9.7,0.9,13.5,2.6
			c3.9,1.8,6.9,4.2,9,7.4c2.1,3.1,3.3,6.8,3.3,10.9H984.9z"/>
		<path class="st3" d="M1033.2,284.4c-5.4,0-10-1.1-13.8-3.3c-3.9-2.2-6.8-5.3-8.9-9.3c-2.1-4-3.1-8.8-3.1-14.3
			c0-5.4,1-10.1,3.1-14.1c2.1-4,5-7.2,8.8-9.5s8.2-3.4,13.3-3.4c3.4,0,6.6,0.5,9.6,1.6c3,1.1,5.6,2.7,7.8,4.9c2.2,2.2,4,4.9,5.2,8.3
			c1.2,3.3,1.9,7.2,1.9,11.6v4h-44v-9h30.4c0-2.1-0.5-3.9-1.4-5.5c-0.9-1.6-2.2-2.9-3.7-3.8s-3.4-1.4-5.5-1.4
			c-2.2,0-4.1,0.5-5.8,1.5c-1.7,1-3,2.4-4,4s-1.4,3.6-1.5,5.6v8.5c0,2.6,0.5,4.8,1.4,6.7c1,1.9,2.3,3.3,4.1,4.3
			c1.8,1,3.9,1.5,6.3,1.5c1.6,0,3.1-0.2,4.4-0.7c1.3-0.5,2.5-1.1,3.4-2c0.9-0.9,1.7-2,2.2-3.3l13.4,0.9c-0.7,3.2-2.1,6-4.2,8.4
			c-2.1,2.4-4.8,4.2-8.1,5.6C1041.3,283.7,1037.5,284.4,1033.2,284.4z"/>
		<path class="st3" d="M1066.6,302.9v-71.6h14.2v8.8h0.6c0.6-1.4,1.6-2.8,2.8-4.3c1.2-1.5,2.8-2.7,4.7-3.7c2-1,4.4-1.5,7.3-1.5
			c3.8,0,7.3,1,10.5,3c3.2,2,5.8,5,7.7,8.9c1.9,4,2.9,8.9,2.9,14.9c0,5.8-0.9,10.7-2.8,14.7s-4.4,7-7.6,9.1c-3.2,2-6.8,3.1-10.7,3.1
			c-2.8,0-5.2-0.5-7.1-1.4s-3.6-2.1-4.8-3.5s-2.2-2.8-2.8-4.3h-0.4v27.9H1066.6z M1080.7,257.3c0,3.1,0.4,5.8,1.3,8.1
			c0.9,2.3,2.1,4.1,3.7,5.4s3.6,1.9,5.9,1.9c2.4,0,4.3-0.6,6-2c1.6-1.3,2.9-3.1,3.7-5.4c0.8-2.3,1.3-5,1.3-8c0-3-0.4-5.7-1.3-7.9
			c-0.8-2.3-2.1-4.1-3.7-5.4c-1.6-1.3-3.6-1.9-6-1.9c-2.4,0-4.3,0.6-6,1.9c-1.6,1.2-2.9,3-3.7,5.3
			C1081.1,251.5,1080.7,254.2,1080.7,257.3z"/>
		<path class="st3" d="M1150.5,284.4c-5.3,0-9.8-1.1-13.7-3.4c-3.8-2.2-6.8-5.4-8.9-9.4c-2.1-4-3.1-8.7-3.1-14.1
			c0-5.4,1-10.1,3.1-14.1c2.1-4,5-7.2,8.9-9.4c3.8-2.2,8.4-3.4,13.7-3.4c5.3,0,9.8,1.1,13.7,3.4c3.8,2.2,6.8,5.4,8.9,9.4
			c2.1,4,3.1,8.7,3.1,14.1c0,5.3-1,10-3.1,14.1c-2.1,4-5,7.2-8.9,9.4C1160.3,283.3,1155.8,284.4,1150.5,284.4z M1150.6,273.2
			c2.4,0,4.4-0.7,6-2.1c1.6-1.4,2.8-3.2,3.6-5.6c0.8-2.4,1.2-5.1,1.2-8.1c0-3-0.4-5.7-1.2-8.1c-0.8-2.4-2-4.2-3.6-5.6
			c-1.6-1.4-3.6-2.1-6-2.1c-2.4,0-4.4,0.7-6.1,2.1c-1.6,1.4-2.9,3.3-3.7,5.6s-1.2,5.1-1.2,8.1c0,3,0.4,5.7,1.2,8.1s2.1,4.2,3.7,5.6
			C1146.1,272.5,1148.1,273.2,1150.6,273.2z"/>
		<path class="st3" d="M1200,213.9v69.5h-14.4v-69.5H1200z"/>
		<path class="st3" d="M1218.8,224.6c-2.1,0-4-0.7-5.5-2.1c-1.5-1.4-2.3-3.1-2.3-5.2c0-2,0.8-3.7,2.3-5.2c1.5-1.4,3.4-2.2,5.5-2.2
			c2.2,0,4,0.7,5.5,2.1c1.5,1.4,2.3,3.1,2.3,5.2s-0.8,3.7-2.3,5.2S1221,224.6,1218.8,224.6z M1211.5,283.4v-52.1h14.4v52.1H1211.5z"
			/>
		<path class="st3" d="M1252.4,284.4c-3.3,0-6.3-0.6-8.9-1.7c-2.6-1.2-4.7-2.9-6.2-5.2c-1.5-2.3-2.3-5.2-2.3-8.6
			c0-2.9,0.5-5.3,1.6-7.3c1.1-2,2.5-3.5,4.3-4.7s3.9-2.1,6.3-2.7c2.3-0.6,4.8-1,7.4-1.3c3-0.3,5.5-0.6,7.3-0.9
			c1.9-0.3,3.2-0.7,4-1.3s1.3-1.4,1.3-2.5v-0.2c0-2.1-0.7-3.8-2-5c-1.3-1.2-3.3-1.8-5.7-1.8c-2.6,0-4.7,0.6-6.2,1.7
			c-1.5,1.1-2.6,2.6-3.1,4.3l-13.4-1.1c0.7-3.2,2-5.9,4-8.2c2-2.3,4.6-4.1,7.7-5.4c3.2-1.3,6.8-1.9,11-1.9c2.9,0,5.7,0.3,8.3,1
			c2.7,0.7,5,1.7,7.1,3.2c2.1,1.4,3.7,3.3,4.9,5.5c1.2,2.2,1.8,4.9,1.8,8v35.1H1268v-7.2h-0.4c-0.8,1.6-2,3.1-3.4,4.3
			s-3.1,2.2-5.1,2.9C1257.2,284,1254.9,284.4,1252.4,284.4z M1256.5,274.4c2.1,0,4-0.4,5.6-1.3c1.6-0.8,2.9-2,3.8-3.4
			c0.9-1.4,1.4-3.1,1.4-4.9v-5.5c-0.5,0.3-1.1,0.6-1.8,0.8c-0.8,0.2-1.7,0.5-2.6,0.6c-1,0.2-1.9,0.4-2.9,0.5c-1,0.1-1.9,0.3-2.6,0.4
			c-1.7,0.2-3.2,0.6-4.4,1.2c-1.3,0.5-2.2,1.3-3,2.2c-0.7,0.9-1.1,2.1-1.1,3.4c0,2,0.7,3.5,2.2,4.5
			C1252.5,273.9,1254.3,274.4,1256.5,274.4z"/>
	</g>
</g>
</svg>
