<?xml version="1.0" encoding="utf-8"?>
<!-- Generator: Adobe Illustrator 25.4.1, SVG Export Plug-In . SVG Version: 6.00 Build 0)  -->
<svg version="1.1" id="Layer_1" xmlns="http://www.w3.org/2000/svg" xmlns:xlink="http://www.w3.org/1999/xlink" x="0px" y="0px"
	 viewBox="0 0 1000 1000" style="enable-background:new 0 0 1000 1000;" xml:space="preserve">
<style type="text/css">
	.st0{fill:#CCCCCC;}
	.st1{clip-path:url(#SVGID_00000156562337983990306000000011858335954636840074_);}
	
		.st2{clip-path:url(#SVGID_00000073720920861845586750000010336753265709743261_);fill:none;stroke:#FFFFFF;stroke-width:14.5916;stroke-linecap:round;stroke-miterlimit:10;}
	.st3{clip-path:url(#SVGID_00000073720920861845586750000010336753265709743261_);fill:#FFFFFF;}
</style>
<g>
	<rect class="st0" width="1000" height="1000"/>
</g>
<g>
	<g>
		<defs>
			<rect id="SVGID_1_" x="184" y="184" width="632" height="632"/>
		</defs>
		<clipPath id="SVGID_00000155124942930065609930000008870644371759765160_">
			<use xlink:href="#SVGID_1_"  style="overflow:visible;"/>
		</clipPath>
		<g style="clip-path:url(#SVGID_00000155124942930065609930000008870644371759765160_);">
			<defs>
				<rect id="SVGID_00000146473303780506869020000018022451626996744604_" x="184" y="184" width="632" height="632"/>
			</defs>
			<clipPath id="SVGID_00000141455357999336923220000013037855529273187460_">
				<use xlink:href="#SVGID_00000146473303780506869020000018022451626996744604_"  style="overflow:visible;"/>
			</clipPath>
			
				<path style="clip-path:url(#SVGID_00000141455357999336923220000013037855529273187460_);fill:none;stroke:#FFFFFF;stroke-width:14.5916;stroke-linecap:round;stroke-miterlimit:10;" d="
				M502,537.2c0,0-43.3,65.7,3.3,124.2c44.8,56.2,15.3,120.6,8.8,140.1"/>
			<path style="clip-path:url(#SVGID_00000141455357999336923220000013037855529273187460_);fill:#FFFFFF;" d="M466.2,552.2
				c-1.3,1.9-0.5,3.5,1.8,3.5h61.5c2.3,0,3.1-1.5,1.8-3.4l-30.5-44.1c-1.3-1.9-3.4-1.9-4.7,0L466.2,552.2z"/>
			<path style="clip-path:url(#SVGID_00000141455357999336923220000013037855529273187460_);fill:#FFFFFF;" d="M649.2,352
				c0,88-61.5,182-149.5,182S350.2,440,350.2,352c0-88,61.5-159.3,149.5-159.3S649.2,264.1,649.2,352"/>
		</g>
	</g>
</g>
</svg>
