<?xml version="1.0" encoding="utf-8"?>
<!-- Generator: Adobe Illustrator 25.4.1, SVG Export Plug-In . SVG Version: 6.00 Build 0)  -->
<svg version="1.1" id="Layer_1" xmlns="http://www.w3.org/2000/svg" xmlns:xlink="http://www.w3.org/1999/xlink" x="0px" y="0px"
	 viewBox="0 0 1920 864" style="enable-background:new 0 0 1920 864;" xml:space="preserve">
<style type="text/css">
	.st0{fill:none;stroke:#000000;stroke-width:4.4848;stroke-linecap:round;stroke-miterlimit:10;}
	.st1{fill:#4D13D1;}
	.st2{fill:#B7A1ED;}
	.st3{fill:none;stroke:#000000;stroke-width:1.7519;stroke-linecap:round;stroke-miterlimit:10;}
	.st4{fill:none;stroke:#000000;stroke-width:2.7895;stroke-linecap:round;stroke-miterlimit:10;}
	.st5{fill:none;stroke:#000000;stroke-width:1.3615;stroke-linecap:round;stroke-miterlimit:10;}
	.st6{fill:none;stroke:#000000;stroke-width:3.6367;stroke-linecap:round;stroke-miterlimit:10;}
	.st7{fill:none;stroke:#000000;stroke-width:3.0867;stroke-linecap:round;stroke-miterlimit:10;}
	.st8{fill:#DB0A5B;}
	.st9{fill:#ED85AD;}
	.st10{fill:none;stroke:#000000;stroke-width:1.8667;stroke-linecap:round;stroke-miterlimit:10;}
	.st11{fill:none;stroke:#000000;stroke-width:2.3797;stroke-linecap:round;stroke-miterlimit:10;}
	.st12{fill:#FFA400;}
	.st13{fill:#FFDB99;}
	.st14{fill:none;stroke:#000000;stroke-width:2.7984;stroke-linecap:round;stroke-miterlimit:10;}
	.st15{fill:none;stroke:#000000;stroke-width:5.1471;stroke-linecap:round;stroke-miterlimit:10;}
</style>
<g>
	<path class="st0" d="M1499,512.6c0,0-11.8,17.5-8.6,35.1c3.2,17.5,16.5,19.9,19,38c2.6,18.1-9.8,44.7-9.8,44.7"/>
	<path class="st1" d="M1488.8,515.3c-0.4,0.6-0.1,1.1,0.6,1.1h18.9c0.7,0,1-0.5,0.6-1.1l-9.4-13.6c-0.4-0.6-1.1-0.6-1.4,0
		L1488.8,515.3z"/>
	<path class="st1" d="M1545,453.7c0,27-18.9,55.9-45.9,55.9s-45.9-28.9-45.9-55.9s18.9-49,45.9-49
		C1526.1,404.8,1545,426.7,1545,453.7"/>
	<path class="st2" d="M1499.1,415.6v-0.1c0-1.8-1.5-3.2-3.3-3.1c-20.3,1.6-33.1,18.1-34.3,38.8c-0.1,1.8,1.3,3.2,3.1,3.2
		c1.6,0,2.9-1.2,3.1-2.8c0.7-7.9,4.6-30.1,28.7-33C1497.9,418.4,1499.1,417.2,1499.1,415.6"/>
</g>
<g>
	<path class="st3" d="M495.9,402.2c0,0,4.9,8.7,4,12.2C499,418,493,422,494,426s7,12,5,19"/>
	<path class="st1" d="M492,403.4c-0.2,0.2-0.1,0.4,0.2,0.4h7.4c0.3,0,0.4-0.2,0.2-0.4l-3.7-5.3c-0.2-0.2-0.4-0.2-0.6,0L492,403.4z"
		/>
	<path class="st1" d="M514,379.3c0,10.6-7.4,21.9-17.9,21.9c-10.6,0-17.9-11.3-17.9-21.9s7.4-19.1,17.9-19.1
		C506.6,360.2,514,368.8,514,379.3"/>
	<path class="st2" d="M496.1,364.4L496.1,364.4c0-0.7-0.6-1.3-1.3-1.2c-7.9,0.6-12.9,7.1-13.4,15.2c0,0.7,0.5,1.3,1.2,1.3
		c0.6,0,1.1-0.5,1.2-1.1c0.3-3.1,1.8-11.7,11.2-12.9C495.6,365.6,496.1,365.1,496.1,364.4"/>
</g>
<g>
	<path class="st4" d="M130.5,622.9c0,0,7.8,13.9,6.3,19.5s-11,12-9.4,18.3c1.6,6.4,11.1,19.1,8,30.3"/>
	<path class="st1" d="M124.3,624.7c-0.2,0.4-0.1,0.7,0.3,0.7h11.7c0.4,0,0.6-0.3,0.3-0.7l-5.8-8.4c-0.2-0.4-0.7-0.4-0.9,0
		L124.3,624.7z"/>
	<path class="st1" d="M159.3,586.4c0,16.8-11.8,34.8-28.6,34.8s-28.6-18-28.6-34.8s11.8-30.4,28.6-30.4S159.3,569.6,159.3,586.4"/>
	<path class="st2" d="M130.7,562.7L130.7,562.7c0-1.2-0.9-2.1-2-2c-12.6,1-20.6,11.3-21.3,24.2c-0.1,1.1,0.8,2,1.9,2
		c1,0,1.8-0.8,1.9-1.7c0.4-4.9,2.9-18.7,17.8-20.5C129.9,564.5,130.7,563.7,130.7,562.7"/>
</g>
<g>
	<path class="st5" d="M1476,252.9c0,0,3.8,6.8,3.1,9.5c-0.7,2.7-5.4,5.8-4.6,9c0.8,3.1,5.4,9.3,3.9,14.8"/>
	<path class="st1" d="M1472.9,253.8c-0.1,0.2,0,0.3,0.2,0.3h5.7c0.2,0,0.3-0.1,0.2-0.3l-2.8-4.1c-0.1-0.2-0.3-0.2-0.4,0
		L1472.9,253.8z"/>
	<path class="st1" d="M1490,235.1c0,8.2-5.7,17-13.9,17c-8.2,0-13.9-8.8-13.9-17s5.7-14.9,13.9-14.9
		C1484.3,220.2,1490,226.9,1490,235.1"/>
	<path class="st2" d="M1476.1,223.5L1476.1,223.5c0-0.6-0.5-1-1-1c-6.2,0.5-10,5.5-10.4,11.8c0,0.5,0.4,1,0.9,1s0.9-0.4,0.9-0.9
		c0.2-2.4,1.4-9.1,8.7-10C1475.7,224.4,1476.1,224,1476.1,223.5"/>
</g>
<g>
	<path class="st6" d="M1060.1,541.2c0,0,10.2,18.1,8.3,25.4c-1.9,7.3-14.4,15.6-12.3,23.9c2.1,8.3,14.5,24.9,10.4,39.4"/>
	<path class="st1" d="M1052,543.6c-0.3,0.5-0.1,0.9,0.5,0.9h15.3c0.6,0,0.8-0.4,0.4-0.9l-7.6-11c-0.3-0.5-0.9-0.5-1.2,0L1052,543.6z
		"/>
	<path class="st1" d="M1097.6,493.7c0,21.9-15.3,45.4-37.3,45.4c-21.9,0-37.3-23.4-37.3-45.4c0-21.9,15.3-39.7,37.3-39.7
		C1082.3,454,1097.6,471.8,1097.6,493.7"/>
	<path class="st2" d="M1060.4,462.8L1060.4,462.8c0-1.5-1.2-2.7-2.6-2.6c-16.5,1.3-26.8,14.7-27.8,31.5c-0.1,1.4,1.1,2.6,2.5,2.6
		c1.3,0,2.4-1,2.5-2.3c0.5-6.4,3.8-24.4,23.2-26.8C1059.4,465.1,1060.4,464,1060.4,462.8"/>
</g>
<g>
	<path class="st7" d="M1655.9,97c0,0-9.2,27.1,0.7,39.5c9.5,11.9,3.2,36.3,1.9,40.4"/>
	<path class="st8" d="M1648.3,100.2c-0.3,0.4-0.1,0.7,0.4,0.7h13c0.5,0,0.7-0.3,0.4-0.7l-6.5-9.3c-0.3-0.4-0.7-0.4-1,0L1648.3,100.2
		z"/>
	<path class="st8" d="M1687,57.8c0,18.6-13,38.5-31.6,38.5s-31.6-19.9-31.6-38.5s13-33.7,31.6-33.7C1674,24.1,1687,39.2,1687,57.8"
		/>
	<path class="st9" d="M1655.4,31.6L1655.4,31.6c0-1.3-1-2.3-2.2-2.2c-14,1.1-22.8,12.5-23.6,26.7c-0.1,1.2,0.9,2.2,2.1,2.2
		c1.1,0,2-0.8,2.1-1.9c0.5-5.5,3.2-20.7,19.7-22.7C1654.6,33.5,1655.4,32.7,1655.4,31.6"/>
</g>
<g>
	<path class="st7" d="M777.9,655c0,0-9.2,27.1,0.7,39.5c9.5,11.9,3.2,36.3,1.9,40.4"/>
	<path class="st8" d="M770.3,658.2c-0.3,0.4-0.1,0.7,0.4,0.7h13c0.5,0,0.7-0.3,0.4-0.7l-6.5-9.3c-0.3-0.4-0.7-0.4-1,0L770.3,658.2z"
		/>
	<path class="st8" d="M809,615.8c0,18.6-13,38.5-31.6,38.5s-31.6-19.9-31.6-38.5s13-33.7,31.6-33.7S809,597.2,809,615.8"/>
	<path class="st9" d="M777.4,589.6L777.4,589.6c0-1.3-1-2.3-2.2-2.2c-14,1.1-22.8,12.5-23.6,26.7c-0.1,1.2,0.9,2.2,2.1,2.2
		c1.1,0,2-0.8,2.1-1.9c0.5-5.5,3.2-20.7,19.7-22.7C776.6,591.5,777.4,590.7,777.4,589.6"/>
</g>
<g>
	<path class="st10" d="M262.8,260.9c0,0,8.1,14.8,6.2,22.6c-1.8,7.9-13.9,13.9-12.1,24.2c1.8,10.3,7.9,18.7,7.9,18.7"/>
	<path class="st8" d="M258.6,262.2c-0.2,0.2-0.1,0.4,0.2,0.4h7.9c0.3,0,0.4-0.2,0.2-0.4l-3.9-5.6c-0.2-0.2-0.4-0.2-0.6,0
		L258.6,262.2z"/>
	<path class="st8" d="M282,236.6c0,11.3-7.9,23.3-19.1,23.3c-11.3,0-19.1-12-19.1-23.3s7.9-20.4,19.1-20.4
		C274.1,216.2,282,225.3,282,236.6"/>
	<path class="st9" d="M262.9,220.7L262.9,220.7c0-0.8-0.6-1.4-1.4-1.3c-8.5,0.7-13.8,7.5-14.3,16.2c0,0.7,0.5,1.3,1.3,1.3
		c0.7,0,1.2-0.5,1.3-1.2c0.3-3.3,1.9-12.5,11.9-13.7C262.4,221.9,262.9,221.4,262.9,220.7"/>
</g>
<g>
	<path class="st10" d="M1723.8,368.9c0,0,8.1,14.8,6.2,22.6c-1.8,7.9-13.9,13.9-12.1,24.2c1.8,10.3,7.9,18.7,7.9,18.7"/>
	<path class="st8" d="M1719.6,370.2c-0.2,0.2-0.1,0.4,0.2,0.4h7.9c0.3,0,0.4-0.2,0.2-0.4l-3.9-5.6c-0.2-0.2-0.4-0.2-0.6,0
		L1719.6,370.2z"/>
	<path class="st8" d="M1743,344.6c0,11.3-7.9,23.3-19.1,23.3c-11.3,0-19.1-12-19.1-23.3s7.9-20.4,19.1-20.4S1743,333.3,1743,344.6"
		/>
	<path class="st9" d="M1723.9,328.7L1723.9,328.7c0-0.8-0.6-1.4-1.4-1.3c-8.5,0.7-13.8,7.5-14.3,16.2c0,0.7,0.5,1.3,1.3,1.3
		c0.7,0,1.2-0.5,1.3-1.2c0.3-3.3,1.9-12.5,11.9-13.7C1723.4,329.9,1723.9,329.4,1723.9,328.7"/>
</g>
<g>
	<path class="st10" d="M654.8,330.9c0,0,8.1,14.8,6.2,22.6c-1.8,7.9-13.9,13.9-12.1,24.2c1.8,10.3,7.9,18.7,7.9,18.7"/>
	<path class="st8" d="M650.6,332.2c-0.2,0.2-0.1,0.4,0.2,0.4h7.9c0.3,0,0.4-0.2,0.2-0.4l-3.9-5.6c-0.2-0.2-0.4-0.2-0.6,0
		L650.6,332.2z"/>
	<path class="st8" d="M674,306.6c0,11.3-7.9,23.3-19.1,23.3s-19.1-12-19.1-23.3s7.9-20.4,19.1-20.4S674,295.3,674,306.6"/>
	<path class="st9" d="M654.9,290.7L654.9,290.7c0-0.8-0.6-1.4-1.4-1.3c-8.5,0.7-13.8,7.5-14.3,16.2c0,0.7,0.5,1.3,1.3,1.3
		c0.7,0,1.2-0.5,1.3-1.2c0.3-3.3,1.9-12.5,11.9-13.7C654.4,291.9,654.9,291.4,654.9,290.7"/>
</g>
<g>
	<path class="st11" d="M1196.5,370.9c0,0,8.5,14.1,7.5,24.1s-12,17-10,30s7.9,20.4,7.9,20.4"/>
	<path class="st12" d="M1191.2,371.8c-0.2,0.3-0.1,0.6,0.3,0.6h10c0.4,0,0.5-0.3,0.3-0.6l-5-7.2c-0.2-0.3-0.6-0.3-0.8,0
		L1191.2,371.8z"/>
	<path class="st12" d="M1221,339.2c0,14.3-10,29.7-24.4,29.7c-14.3,0-24.4-15.3-24.4-29.7s10-26,24.4-26S1221,324.8,1221,339.2"/>
	<path class="st13" d="M1196.6,318.9L1196.6,318.9c0-1-0.8-1.8-1.7-1.7c-10.8,0.8-17.5,9.6-18.2,20.6c-0.1,0.9,0.7,1.7,1.6,1.7
		c0.8,0,1.6-0.6,1.6-1.5c0.3-4.2,2.5-16,15.2-17.5C1196,320.4,1196.6,319.8,1196.6,318.9"/>
</g>
<g>
	<path class="st14" d="M1694.2,622.8c0,0-11.8,47,4.7,88.2"/>
	<path class="st12" d="M1688.5,624.9c-0.2,0.4-0.1,0.7,0.4,0.7h11.8c0.4,0,0.6-0.3,0.3-0.7l-5.8-8.5c-0.3-0.4-0.7-0.4-0.9,0
		L1688.5,624.9z"/>
	<path class="st12" d="M1723.6,586.5c0,16.9-11.8,34.9-28.7,34.9s-28.7-18-28.7-34.9s11.8-30.5,28.7-30.5S1723.6,569.7,1723.6,586.5
		"/>
	<path class="st13" d="M1694.9,562.8L1694.9,562.8c0-1.2-0.9-2.1-2-2c-12.7,1-20.6,11.3-21.4,24.2c-0.1,1.1,0.8,2,1.9,2
		c1,0,1.8-0.8,1.9-1.8c0.4-4.9,2.9-18.8,17.9-20.6C1694.2,564.5,1694.9,563.7,1694.9,562.8"/>
</g>
<g>
	<path class="st11" d="M349.5,84.9c0,0,8.5,14.1,7.5,24.1s-12,17-10,30s7.9,20.4,7.9,20.4"/>
	<path class="st12" d="M344.2,85.8c-0.2,0.3-0.1,0.6,0.3,0.6h10c0.4,0,0.5-0.3,0.3-0.6l-5-7.2c-0.2-0.3-0.6-0.3-0.8,0L344.2,85.8z"
		/>
	<path class="st12" d="M374,53.2c0,14.3-10,29.7-24.4,29.7c-14.3,0-24.4-15.3-24.4-29.7s10-26,24.4-26S374,38.8,374,53.2"/>
	<path class="st13" d="M349.6,32.9L349.6,32.9c0-1-0.8-1.8-1.7-1.7c-10.8,0.8-17.5,9.6-18.2,20.6c-0.1,0.9,0.7,1.7,1.6,1.7
		c0.8,0,1.6-0.6,1.6-1.5c0.3-4.2,2.5-16,15.2-17.5C349,34.4,349.6,33.8,349.6,32.9"/>
</g>
<g>
	<path class="st15" d="M349.9,577.7c0,0-13.5,20.1-9.8,40.3c3.7,20.1,18.9,22.8,21.8,43.6c3,20.8-11.2,51.3-11.2,51.3"/>
	<path class="st12" d="M338.2,580.8c-0.5,0.7-0.2,1.2,0.6,1.2h21.7c0.8,0,1.1-0.5,0.6-1.2l-10.8-15.6c-0.5-0.7-1.2-0.7-1.7,0
		L338.2,580.8z"/>
	<path class="st12" d="M402.7,510.2c0,31-21.7,64.2-52.7,64.2s-52.7-33.2-52.7-64.2S318.9,454,350,454
		C381,454,402.7,479.2,402.7,510.2"/>
	<path class="st13" d="M350,466.4v-0.1c0-2-1.7-3.7-3.7-3.5c-23.3,1.8-37.9,20.8-39.3,44.6c-0.1,2,1.5,3.7,3.5,3.7
		c1.8,0,3.4-1.4,3.5-3.2c0.8-9.1,5.3-34.5,32.9-37.9C348.6,469.7,350,468.2,350,466.4"/>
</g>
</svg>
