<?xml version="1.0" encoding="utf-8"?>
<!-- Generator: Adobe Illustrator 25.4.1, SVG Export Plug-In . SVG Version: 6.00 Build 0)  -->
<svg version="1.1" id="Layer_1" xmlns="http://www.w3.org/2000/svg" xmlns:xlink="http://www.w3.org/1999/xlink" x="0px" y="0px"
	 viewBox="0 0 500 1200" style="enable-background:new 0 0 500 1200;" xml:space="preserve">
<style type="text/css">
	.st0{fill:none;stroke:#000000;stroke-width:20.9634;stroke-linecap:round;stroke-miterlimit:10;}
	.st1{fill:#4D13D1;}
	.st2{fill:#B7A1ED;}
</style>
<g>
	<path class="st0" d="M249.5,533.5c0,0-55,82-40,164s76.9,92.9,89,177.4s-45.8,209-45.8,209"/>
	<g>
		<path class="st1" d="M201.6,546c-1.8,2.7-0.7,5,2.6,5h88.3c3.3,0,4.5-2.2,2.6-4.9l-43.8-63.3c-1.9-2.7-4.9-2.7-6.8,0L201.6,546z"
			/>
	</g>
	<path class="st1" d="M464.4,258.3c0,126.4-88.4,261.5-214.8,261.5S34.8,384.7,34.8,258.3S123.2,29.5,249.6,29.5
		S464.4,132,464.4,258.3z"/>
	<path class="st2" d="M249.6,80.1v-0.5c0-8.3-7-15-15.2-14.3c-95,7.5-154.5,84.7-160.1,181.5c-0.5,8.2,6.1,15.1,14.4,15.1h0
		c7.5,0,13.7-5.7,14.3-13.1c3.1-37,21.7-140.5,133.9-154.4C244.1,93.5,249.6,87.4,249.6,80.1z"/>
</g>
</svg>
