<?xml version="1.0" encoding="utf-8"?>
<!-- Generator: Adobe Illustrator 25.4.1, SVG Export Plug-In . SVG Version: 6.00 Build 0)  -->
<svg version="1.1" id="Solid" xmlns="http://www.w3.org/2000/svg" xmlns:xlink="http://www.w3.org/1999/xlink" x="0px" y="0px"
	 viewBox="0 0 512 512" style="enable-background:new 0 0 512 512;" xml:space="preserve">
<style type="text/css">
	.st0{fill:#FFFFFF;}
</style>
<g>
	<path class="st0" d="M368,16c-70.6,0-128,57.4-128,128s57.4,128,128,128s128-57.4,128-128S438.6,16,368,16z M368,224
		c-44.1,0-80-35.9-80-80s35.9-80,80-80s80,35.9,80,80S412.1,224,368,224z"/>
	<path class="st0" d="M374.5,83.4c-3-4.2-10-4.2-13,0l-40,56c-2,2.8-2,6.5,0,9.3l40,56c1.5,2.1,3.9,3.4,6.5,3.4s5-1.2,6.5-3.4l40-56
		c2-2.8,2-6.5,0-9.3L374.5,83.4z M368,143.8l-26.3-5.3l26.3-36.8l26.3,36.8L368,143.8z"/>
	<path class="st0" d="M58.3,221.7c1.6,1.6,3.6,2.3,5.7,2.3c2.1,0,4.1-0.8,5.7-2.3c3.1-3.1,3.1-8.2,0-11.3l-16-16
		c-3.1-3.1-8.2-3.1-11.3,0l-16,16c-3.1,3.1-3.1,8.2,0,11.3s8.2,3.1,11.3,0l2.3-2.3v2.8c0,14.1,7.8,26.7,20.4,33
		c1.1,0.6,2.4,0.8,3.6,0.8c2.9,0,5.8-1.6,7.2-4.4c2-4,0.4-8.8-3.6-10.7c-7.1-3.6-11.6-10.7-11.6-18.7v-2.8L58.3,221.7z"/>
	<path class="st0" d="M436.4,279.2c14.6,7.3,22.9,23,21.1,39l-3.9-3.9c-3.1-3.1-8.2-3.1-11.3,0s-3.1,8.2,0,11.3l16,16
		c1.6,1.6,3.6,2.3,5.7,2.3s4.1-0.8,5.7-2.3l16-16c3.1-3.1,3.1-8.2,0-11.3s-8.2-3.1-11.3,0l-0.5,0.5c0.3-20.8-11.2-40.5-30.2-50
		c-4-2-8.8-0.4-10.7,3.6S432.5,277.2,436.4,279.2L436.4,279.2z"/>
	<path class="st0" d="M189.9,71.5c6-5.2,14.4-6.5,21.8-3.4l2.6,1.1l-3.1,1.3c-4.1,1.7-6,6.4-4.4,10.4c1.3,3.1,4.3,5,7.4,5
		c1,0,2-0.2,3-0.6l20.9-8.6c4.1-1.7,6-6.4,4.4-10.4l-8.5-21c-1.7-4.1-6.4-6-10.4-4.4c-4.1,1.7-6,6.4-4.4,10.4l1.2,3.1l-2.6-1.1
		c-13-5.5-27.7-3.1-38.4,6.1c-3.3,2.9-3.7,7.9-0.8,11.3C181.5,74,186.5,74.4,189.9,71.5L189.9,71.5z"/>
	<path class="st0" d="M326.7,468.1c-7.5,2.6-15.8,0.9-21.5-4.7l-2-1.9l3.3-0.1c4.4-0.1,7.9-3.7,7.8-8.2c-0.1-4.4-3.7-7.7-8.2-7.8
		l-22.6,0.4c-4.4,0.1-7.9,3.7-7.8,8.2l0.4,22.6c0.1,4.4,3.6,7.8,8,7.8h0.2c4.4-0.1,7.9-3.7,7.8-8.2l-0.1-3.3l2,1.9
		c7,6.8,16.2,10.4,25.6,10.4c4.1,0,8.3-0.7,12.4-2.2c4.2-1.5,6.4-6,4.9-10.2C335.5,468.8,330.9,466.6,326.7,468.1L326.7,468.1z"/>
</g>
<g>
	<path class="st0" d="M102.3,83.1c9.6,0,17.9-3.4,24.8-10.3c6.8-6.8,10.3-15.1,10.3-24.8c0-9.6-3.4-17.9-10.3-24.8
		c-6.8-6.8-15.1-10.3-24.8-10.3c-9.6,0-17.9,3.4-24.8,10.3S67.3,38.5,67.3,48.1S70.8,66,77.6,72.9C84.4,79.7,92.7,83.1,102.3,83.1z"
		/>
	<path class="st0" d="M163.6,124.9c-0.2-2.8-0.6-5.9-1.2-9.2c-0.6-3.3-1.3-6.4-2.3-9.2c-0.9-2.9-2.2-5.8-3.8-8.6
		c-1.6-2.9-3.6-5.4-5.7-7.5c-2.3-2.2-5-3.9-8.2-5.2c-3.2-1.3-6.7-1.9-10.5-1.9c-1.5,0-2.9,0.6-5.7,2.4c-1.7,1.1-3.7,2.4-5.9,3.8
		c-1.9,1.2-4.5,2.3-7.7,3.4c-3.1,1-6.3,1.5-9.4,1.5S97,94,93.9,93c-3.2-1-5.8-2.2-7.7-3.4c-2.2-1.4-4.2-2.7-5.9-3.8
		c-2.8-1.8-4.2-2.4-5.7-2.4c-3.8,0-7.3,0.6-10.5,1.9c-3.2,1.3-6,3-8.2,5.2c-2.2,2.1-4.1,4.6-5.7,7.5c-1.6,2.8-2.9,5.7-3.8,8.6
		c-0.9,2.8-1.7,5.9-2.3,9.2c-0.6,3.3-1,6.3-1.2,9.2c-0.2,2.8-0.3,5.7-0.3,8.6c0,7.6,2.4,13.7,7.2,18.3c4.7,4.5,10.9,6.7,18.5,6.7h70
		c7.6,0,13.8-2.3,18.5-6.7c4.8-4.5,7.2-10.7,7.2-18.3C163.9,130.6,163.8,127.7,163.6,124.9z"/>
</g>
<g>
	<path class="st0" d="M415.1,410c9.6,0,17.9-3.4,24.8-10.3c6.8-6.8,10.3-15.1,10.3-24.8c0-9.6-3.4-17.9-10.3-24.8
		c-6.8-6.8-15.1-10.3-24.8-10.3c-9.6,0-17.9,3.4-24.8,10.3c-6.8,6.8-10.3,15.1-10.3,24.7s3.5,17.9,10.3,24.8
		C397.1,406.5,405.5,410,415.1,410z"/>
	<path class="st0" d="M476.3,451.7c-0.2-2.8-0.6-5.9-1.2-9.2c-0.6-3.3-1.3-6.4-2.3-9.2c-0.9-2.9-2.2-5.8-3.8-8.6
		c-1.6-2.9-3.6-5.4-5.7-7.5c-2.3-2.2-5-3.9-8.2-5.2c-3.2-1.3-6.7-1.9-10.5-1.9c-1.5,0-2.9,0.6-5.7,2.4c-1.7,1.1-3.7,2.4-5.9,3.8
		c-1.9,1.2-4.5,2.3-7.7,3.4c-3.1,1-6.3,1.5-9.4,1.5s-6.3-0.5-9.4-1.5c-3.2-1-5.8-2.2-7.7-3.4c-2.2-1.4-4.2-2.7-5.9-3.8
		c-2.8-1.8-4.2-2.4-5.7-2.4c-3.8,0-7.3,0.6-10.5,1.9s-6,3-8.2,5.2c-2.2,2.1-4.1,4.6-5.7,7.5c-1.6,2.8-2.9,5.7-3.8,8.6
		c-0.9,2.8-1.7,5.9-2.3,9.2c-0.6,3.3-1,6.3-1.2,9.2c-0.2,2.8-0.3,5.7-0.3,8.6c0,7.6,2.4,13.7,7.2,18.3c4.7,4.5,10.9,6.7,18.5,6.7h70
		c7.6,0,13.8-2.3,18.5-6.7c4.8-4.5,7.2-10.7,7.2-18.3C476.6,457.4,476.5,454.5,476.3,451.7z"/>
</g>
<g>
	<path class="st0" d="M152,240c-70.6,0-128,57.4-128,128s57.4,128,128,128s128-57.4,128-128S222.6,240,152,240z M152,448
		c-44.1,0-80-35.9-80-80s35.9-80,80-80s80,35.9,80,80S196.1,448,152,448z"/>
	<g>
		<path class="st0" d="M195.4,338.3l-39.7-23.1c-2.3-1.3-5.1-1.3-7.4,0l-39.7,23.1c-2.3,1.4-3.7,3.8-3.7,6.5v46.4
			c0,2.7,1.4,5.2,3.7,6.5l39.7,23.1c2.3,1.3,5.1,1.3,7.4,0l39.7-23.1c2.3-1.4,3.7-3.9,3.7-6.5v-46.4
			C199.1,342.1,197.7,339.6,195.4,338.3z M167.7,338.8h13.5c1.2,0,2.2,1,2.2,2.2s-1,2.2-2.2,2.2h-4.5v20.2c0,1.2-1,2.2-2.2,2.2
			s-2.2-1-2.2-2.2v-20.2h-4.5c-1.2,0-2.2-1-2.2-2.2C165.5,339.8,166.5,338.8,167.7,338.8z M143,341.1c0-1.2,1-2.2,2.2-2.2h13.5
			c1.2,0,2.2,1,2.2,2.2s-1,2.2-2.2,2.2h-11.2v6.7h4.5c1.2,0,2.2,1,2.2,2.2s-1,2.2-2.2,2.2h-4.5v9c0,1.2-1,2.2-2.2,2.2
			s-2.2-1-2.2-2.2v-22.3H143z M120.6,394.9h-4.5c-1.2,0-2.2-1-2.2-2.2s1-2.2,2.2-2.2h4.5c1.2,0,2.2,1,2.2,2.2
			C122.8,393.9,121.8,394.9,120.6,394.9z M120.6,386h-4.5c-1.2,0-2.2-1-2.2-2.2s1-2.2,2.2-2.2h4.5c1.2,0,2.2,1,2.2,2.2
			S121.8,386,120.6,386z M120.6,377h-4.5c-1.2,0-2.2-1-2.2-2.2s1-2.2,2.2-2.2h4.5c1.2,0,2.2,1,2.2,2.2
			C122.8,376,121.8,377,120.6,377z M131.8,401.7c0,1.2-1,2.2-2.2,2.2s-2.2-1-2.2-2.2v-26.9c0-1.2,1-2.2,2.2-2.2s2.2,1,2.2,2.2V401.7
			z M134.6,365.7c-0.2,0.1-0.4,0.1-0.6,0.1c-0.8,0-1.5-0.4-1.9-1.1l-9.3-15.5v14.3c0,1.2-1,2.2-2.2,2.2s-2.2-1-2.2-2.2v-22.4
			c0-1.2,1-2.2,2.2-2.2c0.8,0,1.5,0.4,1.9,1.1l9.3,15.5v-14.3c0-1.2,1-2.2,2.2-2.2s2.2,1,2.2,2.2v22.4
			C136.3,364.5,135.6,365.4,134.6,365.7z M140.8,392.7c0-1.2,1-2.2,2.2-2.2h13.5c1.2,0,2.2,1,2.2,2.2s-1,2.2-2.2,2.2H143
			C141.8,394.9,140.8,393.9,140.8,392.7z M158.7,403.9h-13.5c-1.2,0-2.2-1-2.2-2.2s1-2.2,2.2-2.2h13.5c1.2,0,2.2,1,2.2,2.2
			C161,402.9,160,403.9,158.7,403.9z M158.7,386h-13.5c-1.2,0-2.2-1-2.2-2.2s1-2.2,2.2-2.2h13.5c1.2,0,2.2,1,2.2,2.2
			S160,386,158.7,386z M161,377h-22.4c-1.2,0-2.2-1-2.2-2.2s1-2.2,2.2-2.2H161c1.2,0,2.2,1,2.2,2.2S162.2,377,161,377z M176.7,403.9
			h-9c-1.2,0-2.2-1-2.2-2.2s1-2.2,2.2-2.2h9c1.2,0,2.2,1,2.2,2.2S177.9,403.9,176.7,403.9z M185.7,394.9h-20.2c-1.2,0-2.2-1-2.2-2.2
			s1-2.2,2.2-2.2h20.2c1.2,0,2.2,1,2.2,2.2S186.9,394.9,185.7,394.9z M187.9,386h-20.2c-1.2,0-2.2-1-2.2-2.2s1-2.2,2.2-2.2h20.2
			c1.2,0,2.2,1,2.2,2.2S189.2,386,187.9,386z"/>
		<path class="st0" d="M208.1,391.2v-46.4c0-5.9-3.1-11.3-8.2-14.3l-39.7-23.1c-5.1-3-11.4-3-16.5,0L104,330.5
			c-5.1,3-8.2,8.4-8.2,14.3v46.4c0,5.9,3.1,11.3,8.2,14.3l39.7,23.1c5.1,3,11.4,3,16.5,0l39.7-23.1
			C205,402.5,208.1,397.1,208.1,391.2z M158,424.7c-3.7,2.2-8.3,2.2-11.9,0l-39.7-23.1c-3.7-2.2-6-6.1-6-10.4v-46.4
			c0-4.3,2.3-8.2,6-10.4l39.7-23.1c3.7-2.1,8.2-2.1,11.9,0l39.7,23.1c3.7,2.2,6,6.1,6,10.4v46.4c0,4.3-2.3,8.2-6,10.4L158,424.7z"/>
	</g>
</g>
</svg>
