<?xml version="1.0" encoding="utf-8"?>
<!-- Generator: Adobe Illustrator 25.4.0, SVG Export Plug-In . SVG Version: 6.00 Build 0)  -->
<svg version="1.1" id="Layer_1" xmlns="http://www.w3.org/2000/svg" xmlns:xlink="http://www.w3.org/1999/xlink" x="0px" y="0px"
	 viewBox="0 0 800 1000" style="enable-background:new 0 0 800 1000;" xml:space="preserve">
<style type="text/css">
	.st0{stroke:#000000;stroke-miterlimit:10;}
	.st1{stroke:#000000;stroke-width:2;stroke-miterlimit:10;}
	.st2{fill:#4D13D1;}
	.st3{fill:#B7A1ED;}
	.st4{fill:#DB0A5B;}
	.st5{fill:#ED85AD;}
	.st6{fill:#FFA400;}
	.st7{fill:#FFDB99;}
</style>
<g>
	<line class="st0" x1="509.7" y1="275.86" x2="403.61" y2="814.56"/>
	<line class="st0" x1="295.65" y1="277.58" x2="403.61" y2="814.56"/>
	<line class="st1" x1="403.61" y1="814.56" x2="403.61" y2="327.69"/>
	<line class="st1" x1="403.61" y1="814.6" x2="521.26" y2="370.31"/>
	<line class="st1" x1="403.61" y1="814.6" x2="618.14" y2="338.48"/>
	<line class="st1" x1="280.43" y1="337.1" x2="403.61" y2="814.6"/>
	<line class="st1" x1="184.93" y1="350.94" x2="403.61" y2="814.6"/>
	<g>
		<g>
			<g>
				<path class="st2" d="M484.69,283.08c-2.27,2.38-1.48,4.81,1.76,5.39l39.35,7.05c3.24,0.58,4.81-1.41,3.47-4.42l-14.12-31.92
					c-1.33-3.01-4.28-3.53-6.56-1.14L484.69,283.08z"/>
			</g>
			<path class="st2" d="M643.74,158.84c-11.84,66.03-69.59,128.58-134.04,117.02c-64.45-11.55-96.89-90.26-85.05-156.29
				c11.84-66.03,66.52-111.48,130.98-99.93S655.57,92.81,643.74,158.84z"/>
			<path class="st3" d="M550.88,46.08l0.05-0.28c0.77-4.32-2.16-8.47-6.43-8.88c-49.15-4.79-86.75,30.16-98.67,80.23
				c-1.01,4.24,1.72,8.45,5.91,9.2l0,0c3.8,0.68,7.51-1.72,8.52-5.55c5.03-19.06,24.23-71.46,82.76-68.44
				C546.81,52.55,550.2,49.9,550.88,46.08z"/>
		</g>
		<g>
			<g>
				<path class="st4" d="M273.12,292.24c-1.4,2.98,0.11,5,3.37,4.49l40.75-6.42c3.25-0.51,4.06-2.88,1.78-5.27l-24.34-25.53
					c-2.27-2.38-5.28-1.9-6.68,1.09L273.12,292.24z"/>
			</g>
			<path class="st4" d="M385.97,122.2c10.45,66.27-24.74,144.45-91.01,154.9s-123.81-53.12-134.25-119.38
				c-10.45-66.27,27.44-127.3,93.71-137.75S375.52,55.93,385.97,122.2z"/>
			<path class="st5" d="M258.61,46.5l-0.05-0.29c-0.68-4.34-4.91-7.28-9.18-6.26c-49.2,11.77-74.02,57.22-68.95,108.44
				c0.43,4.34,4.47,7.41,8.78,6.73h0c3.91-0.62,6.7-4.11,6.41-8.06c-1.45-19.67-0.24-75.5,57.46-92.04
				C256.81,53.96,259.21,50.34,258.61,46.5z"/>
		</g>
		<g>
			<g>
				<path class="st6" d="M164.61,361.71c-0.66,3.23,1.29,4.83,4.33,3.56l38.07-15.88c3.04-1.27,3.26-3.76,0.49-5.54l-29.69-19.04
					c-2.77-1.78-5.58-0.59-6.23,2.64L164.61,361.71z"/>
			</g>
			<path class="st6" d="M234.01,169.79c25.83,61.91,10.14,146.2-51.77,172.04c-61.91,25.83-132.86-22.31-158.69-84.22
				S20.1,127.43,82.01,101.6S208.18,107.88,234.01,169.79z"/>
			<path class="st7" d="M92.35,126.38l-0.11-0.27c-1.69-4.05-6.49-5.91-10.4-3.91c-45.02,23.08-58.38,73.11-41.34,121.68
				c1.44,4.11,6.1,6.14,10.12,4.46h0c3.65-1.52,5.54-5.58,4.32-9.34c-6.06-18.76-18.1-73.3,34.05-103.02
				C92.37,134.05,93.85,129.97,92.35,126.38z"/>
		</g>
		<g>
			<g>
				<path class="st6" d="M595.49,342.72c-2.7,1.89-2.39,4.39,0.69,5.57l38.54,14.7c3.08,1.17,4.95-0.48,4.17-3.68l-8.41-34.25
					c-0.79-3.2-3.64-4.27-6.34-2.38L595.49,342.72z"/>
			</g>
			<path class="st6" d="M777.98,251.37c-23.91,62.68-93.33,112.99-156.01,89.09S541,232.78,564.91,170.1s87.14-96.77,149.82-72.86
				S801.89,188.69,777.98,251.37z"/>
			<path class="st7" d="M705.16,122.34l0.1-0.27c1.56-4.1-0.63-8.75-4.85-9.99c-48.53-14.27-92.68,12.8-113.77,59.76
				c-1.79,3.98,0.19,8.65,4.27,10.21v0c3.7,1.41,7.86-0.23,9.57-3.8c8.53-17.78,37.35-65.61,95.64-51.25
				C699.89,127.91,703.78,125.97,705.16,122.34z"/>
		</g>
		<g>
			<g>
				<path class="st6" d="M379.88,328.18c-1.85,2.73-0.67,4.96,2.63,4.96h41.25c3.29,0,4.46-2.22,2.58-4.93l-20.07-29
					c-1.87-2.71-4.92-2.69-6.77,0.03L379.88,328.18z"/>
			</g>
			<path class="st6" d="M517.84,177.79c0,67.09-46.94,138.84-114.02,138.84S289.8,244.88,289.8,177.79S336.73,56.32,403.82,56.32
				S517.84,110.7,517.84,177.79z"/>
			<path class="st7" d="M403.82,83.18v-0.29c0-4.39-3.71-7.95-8.09-7.61c-50.43,3.96-82.03,44.99-85,96.38
				c-0.25,4.35,3.26,8.02,7.62,8.02l0,0c3.96,0,7.26-3.02,7.59-6.96c1.63-19.65,11.52-74.61,71.09-81.97
				C400.88,90.27,403.82,87.06,403.82,83.18z"/>
		</g>
		<g>
			<g>
				<path class="st4" d="M499.14,366.21c-2.4,2.26-1.72,4.7,1.49,5.41l40.27,8.94c3.22,0.71,4.83-1.2,3.59-4.25l-13.31-32.66
					c-1.24-3.05-4.22-3.7-6.62-1.44L499.14,366.21z"/>
			</g>
			<path class="st4" d="M666.4,249.28c-14.53,65.49-75.9,125.37-141.39,110.84s-95.77-94.75-81.24-160.24S515.9,91.46,581.39,106
				S680.93,183.79,666.4,249.28z"/>
			<path class="st5" d="M575.58,132.22l0.06-0.28c0.95-4.29-1.9-8.57-6.25-9.18c-50.09-7.06-89.83,26.15-103.86,75.67
				c-1.19,4.2,1.45,8.53,5.71,9.48l0,0c3.87,0.86,7.74-1.37,8.91-5.15c5.85-18.83,27.41-70.35,87.16-64.62
				C571.18,138.5,574.74,136.01,575.58,132.22z"/>
		</g>
		<g>
			<g>
				<path class="st2" d="M264.94,364.58c-1.2,3.07,0.45,5.01,3.67,4.32l39.09-8.34c3.22-0.69,3.92-3.12,1.54-5.41l-25.14-24.22
					c-2.37-2.29-5.3-1.65-6.5,1.42L264.94,364.58z"/>
			</g>
			<path class="st2" d="M365.23,189.45c14,65.61-15.83,145.34-79.87,159S161.55,301.5,147.55,235.89s19.46-128.35,83.5-142.02
				S351.23,123.84,365.23,189.45z"/>
			<path class="st3" d="M236.65,120.14l-0.06-0.28c-0.92-4.29-5.2-7.02-9.31-5.79c-47.32,14.15-68.92,60.71-61.03,111.57
				c0.67,4.31,4.79,7.17,8.95,6.29h0c3.78-0.81,6.3-4.43,5.79-8.35c-2.55-19.55-4.57-75.32,50.76-94.64
				C235.33,127.67,237.46,123.94,236.65,120.14z"/>
		</g>
	</g>
	<path d="M412.61,809.56c-4.15-5.81-13.84-5.81-17.99,0l-55.36,77.51c-2.77,3.88-2.77,9,0,12.87l55.36,77.51
		c2.08,2.91,5.4,4.71,9,4.71s6.92-1.66,9-4.71l55.36-77.51c2.77-3.88,2.77-9,0-12.87L412.61,809.56z M403.61,893.16l-36.4-7.34
		l36.4-50.93l36.4,50.93L403.61,893.16z"/>
</g>
</svg>
