<?xml version="1.0" encoding="utf-8"?>
<!-- Generator: Adobe Illustrator 25.4.1, SVG Export Plug-In . SVG Version: 6.00 Build 0)  -->
<svg version="1.1" id="Solid" xmlns="http://www.w3.org/2000/svg" xmlns:xlink="http://www.w3.org/1999/xlink" x="0px" y="0px"
	 viewBox="0 0 512 512" style="enable-background:new 0 0 512 512;" xml:space="preserve">
<style type="text/css">
	.st0{fill:#FFFFFF;}
</style>
<g>
	<path class="st0" d="M331.5,412.5c-7.5-4.7-16.4-6.1-24.9-4l-62.3,15.8c-2.2,0.6-4.4,0.2-6.4-1.1l-13.7-9c2.7-5.3,4-11.2,3.4-17.3
		c-0.8-8.7-5.2-16.8-12-22.2l-52.1-41.2c-0.2-0.2-0.5-0.4-0.8-0.5c-7.3-5.8-15.1-10.8-23-15.1c-31.5-17-68.3-23.2-103.6-17.4
		l-13.4,2.2c-4.4,0.7-7.3,4.8-6.6,9.2c0.7,4.4,4.8,7.3,9.2,6.6l13.5-2.2c31.8-5.2,65,0.4,93.4,15.7c7.4,3.9,14.6,8.7,21.4,14.1
		c0.2,0.2,0.5,0.4,0.8,0.6l51.4,40.6c3.5,2.8,5.6,6.7,6,11.1s-1,8.7-3.9,12c-5.5,6.3-15.8,6.8-23,1.1l-42.6-33.7
		c-3.5-2.7-8.5-2.1-11.2,1.3c-2.7,3.5-2.2,8.5,1.3,11.2L175,424c6.3,5,13.8,7.5,21.2,7.5c6.2,0,12.2-1.8,17.4-5.2l15.7,10.3
		c5.6,3.7,12.5,4.9,19.1,3.2l62.3-15.8c4.3-1.1,8.7-0.4,12.5,2s6.3,6.1,7.2,10.4c1.6,8.2-4.3,16.7-13.2,19l-92.5,23.4
		c-9.8,2.4-20.1,1.1-28.8-3.6l-97.8-52.7c-22.8-12.4-48.7-17.9-74.4-15.9c-4.4,0.3-7.7,4.2-7.4,8.6c0.3,4.4,4.2,7.7,8.6,7.4
		c22.8-1.7,45.4,3.1,65.6,14l97.8,52.7c8.2,4.4,17.4,6.7,26.6,6.7c4.6,0,9.2-0.6,13.7-1.7l92.6-23.4c17.2-4.4,28.2-20.8,24.9-37.6
		C344.1,424.6,339,417.2,331.5,412.5z"/>
	<path class="st0" d="M456,16c-22.1,0-40,17.9-40,40v11.3l-104.6,8.8c-29,2.5-58.4-2.8-84.8-15L188,43.2c-5.9-3.4-12.9-4.1-19.4-2.1
		c-6.4,2.1-11.7,6.8-14.5,13c-5,11.1-0.3,24.7,10.6,31l17.9,10.7L127,81c-11.7-3.2-24.1,2.4-28.9,13c-2.9,6.5-2.9,13.9,0.2,20.2
		s8.7,11.1,15.2,12.8l54.8,16.9h-63.4c-12.1,0-22.7,8.6-24.5,20c-1.1,7,0.8,14.1,5.4,19.5s11.2,8.5,18.3,8.5h112.4l-7.7,17.9
		c-5.6,13.2-5.9,28.1-1,41.5c-9.9,15.1-15.8,33.2-15.8,52.6c0,52.9,43.1,96,96,96s96-43.1,96-96c0-19.8-6.2-39.1-17.6-55.3l2.8-2.4
		c7.6-6.5,11.7-16.4,11.1-26.4c-0.5-7.3,2-14.3,7-19.7s11.8-8.3,19.2-8.3h9.5v24c0,22.1,17.9,40,40,40s40-17.9,40-40V56
		C496,33.9,478.1,16,456,16L456,16z M328.5,272c6.8,0,13.7-2.3,19.2-7.1l6.6-5.7C363.1,272.4,368,288,368,304l0,0
		c0,44.1-35.9,80-80,80s-80-35.9-80-80s35.9-80,80-80c5.5,0,11.1,0.7,16.5,1.8c-3.4,5-5.4,10.7-5.5,16.8c0,3.2,0.6,6.3,1.6,9.3
		 M266.7,210.5c7.5-11.4,20.2-18.5,34.1-18.5c10.4,0,19,8.1,19.7,18.5l-2.8,2.4C308,209.7,298,208,288,208
		C280.7,208,273.6,208.9,266.7,210.5L266.7,210.5z M406.5,176c-11.6,0-22.9,4.9-30.8,13.4c-8,8.5-12.1,20-11.3,31.7
		c0.3,5-1.7,9.9-5.5,13.2l-21.5,18.5c-5.2,4.5-12.8,4.3-18-0.4c-2.8-2.5-4.3-5.9-4.2-9.6c0.1-4.1,2-8.1,5.3-11l10.7-9.2
		c3.8-3.3,5.9-8.2,5.6-13.2c-1.3-18.7-16.9-33.4-35.7-33.4c-22.8,0-43.4,13.6-52.4,34.5l-3.3,7.6c-9.1,4.6-17.4,10.5-24.6,17.5
		c-0.6-6.6,0.2-13.3,2.8-19.5l12.5-29.1c1.1-2.5,0.8-5.3-0.7-7.6s-4-3.6-6.7-3.6H104c-2.4,0-4.6-1-6.1-2.8s-2.2-4.2-1.8-6.6
		c0.6-3.7,4.4-6.6,8.7-6.6h116.5c4,0,7.3-2.9,7.9-6.8c0.6-3.9-1.8-7.7-5.6-8.8l-105.8-32.6c-2.3-0.6-4.2-2.2-5.2-4.3
		c-1-2.2-1-4.6,0-6.8c1.5-3.4,6-5.2,10.2-4.1L233.2,126c3.8,1,7.9-0.9,9.4-4.6c1.6-3.7,0.2-7.9-3.2-10l-66.7-40.1
		c-3.9-2.2-5.7-7-4.1-10.6c1-2.1,2.7-3.7,4.9-4.4s4.5-0.5,7.1,1l39.2,18.2c28.9,13.4,61,19.1,92.9,16.5L448,80.7V144h-18.2
		l-6.2-18.5c-1.1-3.3-4.1-5.5-7.6-5.5h-41.5c-3.3-9.3-12.1-16-22.5-16s-19.2,6.7-22.5,16h-38.2l-13.7-13.7c-3.1-3.1-8.2-3.1-11.3,0
		s-3.1,8.2,0,11.3l16,16c1.5,1.5,3.5,2.3,5.7,2.3h41.5c3.3,9.3,12.1,16,22.5,16s19.2-6.7,22.5-16h35.7l6.2,18.5
		c1.1,3.3,4.1,5.5,7.6,5.5h24v16L406.5,176z M464,216c0,4.4-3.6,8-8,8s-8-3.6-8-8v-24h16V216z M464,63.2l-16,1.4V56c0-4.4,3.6-8,8-8
		s8,3.6,8,8V63.2z"/>
</g>
<g>
	<path class="st0" d="M327.3,277.1l-35.9-20.9c-2.1-1.2-4.7-1.2-6.7,0l-35.9,20.9c-2.1,1.2-3.4,3.5-3.4,5.9v42
		c0,2.4,1.3,4.7,3.4,5.9l35.9,20.9c2.1,1.2,4.6,1.2,6.7,0l35.9-20.9c2.1-1.2,3.4-3.5,3.4-5.9v-42
		C330.7,280.5,329.4,278.3,327.3,277.1z M302.2,277.6h12.2c1.1,0,2,0.9,2,2s-0.9,2-2,2h-4.1v18.3c0,1.1-0.9,2-2,2s-2-0.9-2-2v-18.3
		h-4.1c-1.1,0-2-0.9-2-2S301.1,277.6,302.2,277.6z M279.9,279.6c0-1.1,0.9-2,2-2h12.2c1.1,0,2,0.9,2,2s-0.9,2-2,2h-10.2v6.1h4.1
		c1.1,0,2,0.9,2,2s-0.9,2-2,2h-4.1v8.1c0,1.1-0.9,2-2,2s-2-0.9-2-2V279.6z M259.5,328.4h-4.1c-1.1,0-2-0.9-2-2s0.9-2,2-2h4.1
		c1.1,0,2,0.9,2,2C261.6,327.5,260.7,328.4,259.5,328.4z M259.5,320.3h-4.1c-1.1,0-2-0.9-2-2s0.9-2,2-2h4.1c1.1,0,2,0.9,2,2
		C261.6,319.4,260.7,320.3,259.5,320.3z M259.5,312.1h-4.1c-1.1,0-2-0.9-2-2s0.9-2,2-2h4.1c1.1,0,2,0.9,2,2
		C261.6,311.2,260.7,312.1,259.5,312.1z M269.7,334.5c0,1.1-0.9,2-2,2s-2-0.9-2-2v-24.4c0-1.1,0.9-2,2-2s2,0.9,2,2V334.5z
		 M272.3,301.9c-0.2,0-0.4,0.1-0.5,0.1c-0.7,0-1.4-0.4-1.7-1l-8.4-14v13c0,1.1-0.9,2-2,2s-2-0.9-2-2v-20.3c0-1.1,0.9-2,2-2
		c0.7,0,1.4,0.4,1.7,1l8.4,14v-13c0-1.1,0.9-2,2-2s2,0.9,2,2V300C273.8,300.8,273.2,301.6,272.3,301.9z M277.8,326.4
		c0-1.1,0.9-2,2-2H292c1.1,0,2,0.9,2,2s-0.9,2-2,2h-12.2C278.7,328.4,277.8,327.5,277.8,326.4z M294.1,336.5h-12.2c-1.1,0-2-0.9-2-2
		s0.9-2,2-2h12.2c1.1,0,2,0.9,2,2S295.2,336.5,294.1,336.5z M294.1,320.3h-12.2c-1.1,0-2-0.9-2-2s0.9-2,2-2h12.2c1.1,0,2,0.9,2,2
		S295.2,320.3,294.1,320.3z M296.1,312.1h-20.3c-1.1,0-2-0.9-2-2s0.9-2,2-2h20.3c1.1,0,2,0.9,2,2
		C298.2,311.2,297.3,312.1,296.1,312.1z M310.4,336.5h-8.1c-1.1,0-2-0.9-2-2s0.9-2,2-2h8.1c1.1,0,2,0.9,2,2S311.5,336.5,310.4,336.5
		z M318.5,328.4h-18.3c-1.1,0-2-0.9-2-2s0.9-2,2-2h18.3c1.1,0,2,0.9,2,2S319.6,328.4,318.5,328.4z M320.5,320.3h-18.3
		c-1.1,0-2-0.9-2-2s0.9-2,2-2h18.3c1.1,0,2,0.9,2,2C322.6,319.4,321.6,320.3,320.5,320.3z"/>
	<path class="st0" d="M338.8,325v-42c0-5.3-2.8-10.2-7.4-12.9l-35.9-20.9c-4.6-2.7-10.3-2.7-14.9,0l-36,20.8
		c-4.6,2.7-7.4,7.6-7.4,12.9v42c0,5.3,2.8,10.2,7.4,12.9l35.9,20.9c4.6,2.7,10.3,2.7,14.9,0l35.9-20.9
		C336,335.3,338.8,330.3,338.8,325z M293.4,355.4c-3.3,2-7.5,2-10.8,0l-35.9-20.9c-3.3-2-5.4-5.6-5.4-9.4v-42c0-3.9,2.1-7.5,5.4-9.4
		l35.9-20.9c3.4-1.9,7.5-1.9,10.8,0l35.9,20.9c3.3,2,5.4,5.6,5.4,9.4v42c0,3.9-2.1,7.5-5.4,9.4L293.4,355.4z"/>
</g>
</svg>
