<?xml version="1.0" encoding="utf-8"?>
<!-- Generator: Adobe Illustrator 25.4.1, SVG Export Plug-In . SVG Version: 6.00 Build 0)  -->
<svg version="1.1" id="Layer_1" xmlns="http://www.w3.org/2000/svg" xmlns:xlink="http://www.w3.org/1999/xlink" x="0px" y="0px"
	 viewBox="0 0 1000 1000" style="enable-background:new 0 0 1000 1000;" xml:space="preserve">
<style type="text/css">
	.st0{fill:none;stroke:#000000;stroke-width:23.0885;stroke-linecap:round;stroke-miterlimit:10;}
	.st1{fill:#DB0A5B;}
	.st2{fill:#ED85AD;}
</style>
<g>
	<path class="st0" d="M503.7,558.8c0,0-68.5,104,5.2,196.4c70.8,88.9,24.2,190.8,13.9,221.7"/>
	<g>
		<path class="st1" d="M447.1,582.7c-2,3-0.7,5.5,2.9,5.5h97.2c3.6,0,4.9-2.4,2.8-5.4L501.8,513c-2.1-3-5.4-3-7.5,0L447.1,582.7z"/>
	</g>
	<path class="st1" d="M736.6,265.9c0,139.2-97.4,288-236.6,288s-236.6-148.9-236.6-288s97.4-252,236.6-252S736.6,126.7,736.6,265.9z
		"/>
	<path class="st2" d="M500,69.6V69c0-9.1-7.7-16.5-16.8-15.8C378.6,61.4,313,146.6,306.9,253.2c-0.5,9,6.8,16.6,15.8,16.6h0
		c8.2,0,15.1-6.3,15.7-14.4c3.4-40.8,23.9-154.8,147.5-170.1C493.9,84.3,500,77.7,500,69.6z"/>
</g>
</svg>
