<?xml version="1.0" encoding="utf-8"?>
<!-- Generator: Adobe Illustrator 25.4.1, SVG Export Plug-In . SVG Version: 6.00 Build 0)  -->
<svg version="1.1" id="Layer_1" xmlns="http://www.w3.org/2000/svg" xmlns:xlink="http://www.w3.org/1999/xlink" x="0px" y="0px"
	 viewBox="0 0 200 1000" style="enable-background:new 0 0 200 1000;" xml:space="preserve">
<style type="text/css">
	.st0{fill:#DB0A5B;}
	.st1{fill:#ED85AD;}
</style>
<g>
	<g>
		<path d="M103.1,193.2c6.4,25.9,11.1,52.2,15.3,78.5c8.9,55.9,14.5,112.6,13.3,169.2c-1.1,50.4-9.9,100.2-17.5,149.9
			c-7.4,48.2-14,96.5-16.9,145.2c-3.6,61.2-1.4,122.6,5.5,183.6c1,9,2.1,18,3.4,27.1c0.4,3.1,5.4,3.2,5,0
			c-8.4-63.1-12.3-126.7-9.8-190.3c2-50.5,8.1-100.6,15.6-150.6c7.2-47.7,16.2-95.6,18.9-143.9c3.3-57.8-1.6-116.1-9.9-173.3
			c-4.6-31.8-9.5-64.2-17.7-95.3c-0.1-0.5-0.2-1-0.3-1.5C107.1,188.7,102.3,190,103.1,193.2L103.1,193.2z"/>
	</g>
</g>
<g>
	<path class="st0" d="M91.6,201.6c-0.4,1,0.1,1.7,1.2,1.5l29.6-6.1c1.1-0.2,1.3-1.1,0.5-1.8l-19.1-18.2c-0.8-0.8-1.8-0.6-2.3,0.5
		L91.6,201.6z"/>
	<path class="st0" d="M159.6,86.8c8.8,42.3-11.4,93.8-53.7,102.6c-42.3,8.8-81.4-30.3-90.2-72.7c-8.8-42.3,13.7-82.8,56-91.6
		S150.8,44.5,159.6,86.8"/>
	<path class="st1" d="M75.4,42l0-0.2c-0.6-2.8-3.4-4.5-6.1-3.7c-31.3,9.1-45.9,39.1-41,72c0.4,2.8,3.1,4.6,5.9,4.1
		c2.5-0.5,4.2-2.9,3.9-5.4c-1.5-12.6-2.5-48.6,34.1-61C74.4,46.9,75.9,44.5,75.4,42"/>
</g>
</svg>
