<?xml version="1.0" encoding="utf-8"?>
<!-- Generator: Adobe Illustrator 25.4.1, SVG Export Plug-In . SVG Version: 6.00 Build 0)  -->
<svg version="1.1" id="Solid" xmlns="http://www.w3.org/2000/svg" xmlns:xlink="http://www.w3.org/1999/xlink" x="0px" y="0px"
	 viewBox="0 0 512 512" style="enable-background:new 0 0 512 512;" xml:space="preserve">
<style type="text/css">
	.st0{fill:#FFFFFF;}
</style>
<g>
	<g>
		<path class="st0" d="M488,304h-32c-4.4,0-8-3.6-8-8V24c0-4.4,3.6-8,8-8h32c4.4,0,8,3.6,8,8v272C496,300.4,492.4,304,488,304z"/>
		<path class="st0" d="M424,272h-32c-4.4,0-8-3.6-8-8V24c0-4.4,3.6-8,8-8h32c4.4,0,8,3.6,8,8v240C432,268.4,428.4,272,424,272z"/>
		<path class="st0" d="M104,80H72c-4.4,0-8-3.6-8-8V24c0-4.4,3.6-8,8-8h32c4.4,0,8,3.6,8,8v48C112,76.4,108.4,80,104,80z"/>
		<path class="st0" d="M472,440h-56c-13.2,0-24-10.8-24-24c0-12.6,9.8-23,22.1-23.9L406,384h-94c-9.2,0-17.4-5.1-21.5-13.3
			l-20.2-40.3c-12.2,3.6-25,5.6-38.4,5.6c-51.9,0-97-29.2-119.9-72h-8c-6.4,0-12.4-2.5-17-7l-64-64c-4.5-4.5-7-10.6-7-17
			s2.5-12.4,7-17c4.5-4.5,10.6-7,17-7s12.4,2.5,17,7l39.1,39.1c0.4-32.6,12.3-62.4,31.9-85.6V24c0-4.4,3.6-8,8-8h32c4.4,0,8,3.6,8,8
			v52.2c5.2-2.4,10.5-4.5,16-6.2V24c0-4.4,3.6-8,8-8h32c4.4,0,8,3.6,8,8v40.4c5.4,0.3,10.8,0.9,16,1.8V24c0-4.4,3.6-8,8-8h32
			c4.4,0,8,3.6,8,8v60.8c5.6,3.5,11,7.4,16,11.7V24c0-4.4,3.6-8,8-8h32c4.4,0,8,3.6,8,8c0,0,0,173.8,0,176
			c0,44.5-21.6,84-54.8,108.8l13.6,27.2H416c6.4,0,12.4,2.5,17,7l15.1,15.1c1-12.4,11.3-22.1,23.9-22.1c13.2,0,24,10.8,24,24v56
			C496,429.2,485.2,440,472,440L472,440z M352,200c0-66.2-53.8-120-120-120s-120,53.8-120,120s53.8,120,120,120S352,266.2,352,200z"
			/>
		<path class="st0" d="M152,384h8v-8c0-4.4,3.6-8,8-8s8,3.6,8,8v8h8c4.4,0,8,3.6,8,8v48c0,4.4-3.6,8-8,8h-8v8c0,4.4-3.6,8-8,8
			s-8-3.6-8-8v-8h-8c-4.4,0-8-3.6-8-8v-48C144,387.6,147.6,384,152,384z"/>
		<path class="st0" d="M216,360h8v-8c0-4.4,3.6-8,8-8s8,3.6,8,8v8h8c4.4,0,8,3.6,8,8v48c0,4.4-3.6,8-8,8h-8v8c0,4.4-3.6,8-8,8
			s-8-3.6-8-8v-8h-8c-4.4,0-8-3.6-8-8v-48C208,363.6,211.6,360,216,360z"/>
		<path class="st0" d="M88,320h8v-8c0-4.4,3.6-8,8-8s8,3.6,8,8v8h8c4.4,0,8,3.6,8,8v48c0,4.4-3.6,8-8,8h-8v8c0,4.4-3.6,8-8,8
			s-8-3.6-8-8v-8h-8c-4.4,0-8-3.6-8-8v-48C80,323.6,83.6,320,88,320z"/>
		<path class="st0" d="M24,272h8v-8c0-4.4,3.6-8,8-8s8,3.6,8,8v8h8c4.4,0,8,3.6,8,8v48c0,4.4-3.6,8-8,8h-8v8c0,4.4-3.6,8-8,8
			s-8-3.6-8-8v-8h-8c-4.4,0-8-3.6-8-8v-48C16,275.6,19.6,272,24,272z"/>
		<path class="st0" d="M280,416h8v-8c0-4.4,3.6-8,8-8s8,3.6,8,8v8h8c4.4,0,8,3.6,8,8v48c0,4.4-3.6,8-8,8h-8v8c0,4.4-3.6,8-8,8
			s-8-3.6-8-8v-8h-8c-4.4,0-8-3.6-8-8v-48C272,419.6,275.6,416,280,416z"/>
	</g>
	<g>
		<path class="st0" d="M232,72c-70.6,0-128,57.4-128,128s57.4,128,128,128s128-57.4,128-128S302.6,72,232,72z M232,280
			c-44.1,0-80-35.9-80-80s35.9-80,80-80s80,35.9,80,80S276.1,280,232,280z"/>
		<g>
			<path class="st0" d="M275.4,170.3l-39.7-23.1c-2.3-1.3-5.1-1.3-7.4,0l-39.7,23.1c-2.3,1.4-3.7,3.8-3.7,6.5v46.4
				c0,2.7,1.4,5.2,3.7,6.5l39.7,23.1c2.3,1.3,5.1,1.3,7.4,0l39.7-23.1c2.3-1.4,3.7-3.8,3.7-6.5v-46.4
				C279.1,174.1,277.7,171.6,275.4,170.3z M247.7,170.8h13.5c1.2,0,2.2,1,2.2,2.2s-1,2.2-2.2,2.2h-4.5v20.2c0,1.2-1,2.2-2.2,2.2
				s-2.2-1-2.2-2.2v-20.2h-4.5c-1.2,0-2.2-1-2.2-2.2S246.5,170.8,247.7,170.8z M223,173.1c0-1.2,1-2.2,2.2-2.2h13.5
				c1.2,0,2.2,1,2.2,2.2s-1,2.2-2.2,2.2h-11.2v6.7h4.5c1.2,0,2.2,1,2.2,2.2s-1,2.2-2.2,2.2h-4.5v9c0,1.2-1,2.2-2.2,2.2
				s-2.2-1-2.2-2.2v-22.3H223z M200.6,226.9h-4.5c-1.2,0-2.2-1-2.2-2.2s1-2.2,2.2-2.2h4.5c1.2,0,2.2,1,2.2,2.2
				S201.8,226.9,200.6,226.9z M200.6,218h-4.5c-1.2,0-2.2-1-2.2-2.2s1-2.2,2.2-2.2h4.5c1.2,0,2.2,1,2.2,2.2S201.8,218,200.6,218z
				 M200.6,209h-4.5c-1.2,0-2.2-1-2.2-2.2s1-2.2,2.2-2.2h4.5c1.2,0,2.2,1,2.2,2.2S201.8,209,200.6,209z M211.8,233.7
				c0,1.2-1,2.2-2.2,2.2s-2.2-1-2.2-2.2v-26.9c0-1.2,1-2.2,2.2-2.2s2.2,1,2.2,2.2V233.7z M214.6,197.7c-0.2,0.1-0.4,0.1-0.6,0.1
				c-0.8,0-1.5-0.4-1.9-1.1l-9.3-15.5v14.3c0,1.2-1,2.2-2.2,2.2s-2.2-1-2.2-2.2v-22.4c0-1.2,1-2.2,2.2-2.2c0.8,0,1.5,0.4,1.9,1.1
				l9.3,15.5v-14.3c0-1.2,1-2.2,2.2-2.2s2.2,1,2.2,2.2v22.4C216.3,196.5,215.6,197.4,214.6,197.7z M220.8,224.7c0-1.2,1-2.2,2.2-2.2
				h13.5c1.2,0,2.2,1,2.2,2.2s-1,2.2-2.2,2.2H223C221.8,226.9,220.8,225.9,220.8,224.7z M238.7,235.9h-13.5c-1.2,0-2.2-1-2.2-2.2
				s1-2.2,2.2-2.2h13.5c1.2,0,2.2,1,2.2,2.2C241,234.9,240,235.9,238.7,235.9z M238.7,218h-13.5c-1.2,0-2.2-1-2.2-2.2s1-2.2,2.2-2.2
				h13.5c1.2,0,2.2,1,2.2,2.2S240,218,238.7,218z M241,209h-22.4c-1.2,0-2.2-1-2.2-2.2s1-2.2,2.2-2.2H241c1.2,0,2.2,1,2.2,2.2
				S242.2,209,241,209z M256.7,235.9h-9c-1.2,0-2.2-1-2.2-2.2s1-2.2,2.2-2.2h9c1.2,0,2.2,1,2.2,2.2
				C258.9,234.9,257.9,235.9,256.7,235.9z M265.7,226.9h-20.2c-1.2,0-2.2-1-2.2-2.2s1-2.2,2.2-2.2h20.2c1.2,0,2.2,1,2.2,2.2
				C267.9,225.9,266.9,226.9,265.7,226.9z M267.9,218h-20.2c-1.2,0-2.2-1-2.2-2.2s1-2.2,2.2-2.2h20.2c1.2,0,2.2,1,2.2,2.2
				S269.2,218,267.9,218z"/>
			<path class="st0" d="M288.1,223.2v-46.4c0-5.9-3.1-11.3-8.2-14.3l-39.7-23.1c-5.1-3-11.4-3-16.5,0L184,162.5
				c-5.1,3-8.2,8.4-8.2,14.3v46.4c0,5.9,3.1,11.3,8.2,14.3l39.7,23.1c5.1,3,11.4,3,16.5,0l39.7-23.1
				C285,234.5,288.1,229.1,288.1,223.2z M238,256.7c-3.7,2.2-8.3,2.2-11.9,0l-39.7-23.1c-3.7-2.2-6-6.1-6-10.4v-46.4
				c0-4.3,2.3-8.2,6-10.4l39.7-23.1c3.7-2.1,8.2-2.1,11.9,0l39.7,23.1c3.7,2.2,6,6.1,6,10.4v46.4c0,4.3-2.3,8.2-6,10.4L238,256.7z"
				/>
		</g>
	</g>
</g>
</svg>
