<?xml version="1.0" encoding="utf-8"?>
<!-- Generator: Adobe Illustrator 25.4.0, SVG Export Plug-In . SVG Version: 6.00 Build 0)  -->
<svg version="1.1" id="Layer_1" xmlns="http://www.w3.org/2000/svg" xmlns:xlink="http://www.w3.org/1999/xlink" x="0px" y="0px"
	 viewBox="0 0 512 512" style="enable-background:new 0 0 512 512;" xml:space="preserve">
<style type="text/css">
	.st0{fill:#FFFFFF;}
</style>
<circle cx="256" cy="256" r="256"/>
<path class="st0" d="M91.37,372.27c0.53-7.73,1.61-16.14,3.2-25c1.61-8.94,3.67-17.4,6.14-25.13c2.56-7.99,6.04-15.88,10.33-23.44
	c4.45-7.84,9.7-14.67,15.57-20.3c6.15-5.89,13.68-10.62,22.38-14.06c8.67-3.43,18.28-5.18,28.56-5.18c4.04,0,7.95,1.66,15.48,6.57
	c4.71,3.07,10.14,6.57,16.15,10.41c5.18,3.3,12.19,6.39,20.86,9.19c8.47,2.74,17.05,4.13,25.53,4.13s17.07-1.39,25.52-4.13
	c8.67-2.8,15.69-5.89,20.87-9.2c6.06-3.87,11.49-7.37,16.13-10.4c7.54-4.91,11.45-6.57,15.48-6.57c10.28,0,19.89,1.74,28.57,5.17
	c8.7,3.45,16.23,8.18,22.38,14.06c5.88,5.62,11.12,12.45,15.58,20.3c4.3,7.56,7.77,15.45,10.33,23.44
	c2.47,7.73,4.54,16.18,6.15,25.13c1.59,8.88,2.67,17.29,3.2,24.99c0.22,3.08,0.38,6.23,0.51,9.41
	c26.69-34.84,42.56-78.4,42.56-125.68c0-114.24-92.61-206.85-206.85-206.85S49.15,141.76,49.15,256
	c0,46.81,15.55,89.98,41.76,124.64C91.03,377.82,91.18,375.02,91.37,372.27z M185.73,96.02c18.52-18.52,41.18-27.91,67.36-27.91
	c26.17,0,48.84,9.39,67.36,27.91c18.52,18.53,27.91,41.19,27.91,67.36c0,26.18-9.39,48.84-27.91,67.36
	c-18.52,18.52-41.19,27.91-67.36,27.91c-26.17,0-48.83-9.39-67.36-27.91c-18.52-18.52-27.91-41.18-27.91-67.36
	C157.82,137.2,167.21,114.54,185.73,96.02z"/>
</svg>
